<?xml version="1.0" encoding="UTF-8"?>
<!DOCTYPE svg PUBLIC "-//W3C//DTD SVG 1.1//EN" "http://www.w3.org/Graphics/SVG/1.1/DTD/svg11.dtd">
<svg version="1.2" width="78.74mm" height="78.74mm" viewBox="0 0 7874 7874" preserveAspectRatio="xMidYMid" fill-rule="evenodd" stroke-width="28.222" stroke-linejoin="round" xmlns="http://www.w3.org/2000/svg" xmlns:ooo="http://xml.openoffice.org/svg/export" xmlns:xlink="http://www.w3.org/1999/xlink" xmlns:presentation="http://sun.com/xmlns/staroffice/presentation" xmlns:smil="http://www.w3.org/2001/SMIL20/" xmlns:anim="urn:oasis:names:tc:opendocument:xmlns:animation:1.0" xmlns:svg="urn:oasis:names:tc:opendocument:xmlns:svg-compatible:1.0" xml:space="preserve">
 <defs class="ClipPathGroup">
  <clipPath id="presentation_clip_path" clipPathUnits="userSpaceOnUse">
   <rect x="0" y="0" width="7874" height="7874"/>
  </clipPath>
  <clipPath id="presentation_clip_path_shrink" clipPathUnits="userSpaceOnUse">
   <rect x="7" y="7" width="7859" height="7859"/>
  </clipPath>
 </defs>
 <defs class="TextShapeIndex">
  <g ooo:slide="id1" ooo:id-list="id3 id4 id5 id6 id7 id8 id9 id10 id11 id12 id13 id14 id15 id16 id17 id18 id19 id20 id21 id22 id23 id24 id25 id26 id27 id28 id29 id30 id31 id32 id33 id34 id35 id36 id37 id38 id39 id40 id41 id42 id43 id44 id45 id46 id47 id48 id49"/>
 </defs>
 <defs class="EmbeddedBulletChars">
  <g id="bullet-char-template-57356" transform="scale(0.00048828125,-0.00048828125)">
   <path d="M 580,1141 L 1163,571 580,0 -4,571 580,1141 Z"/>
  </g>
  <g id="bullet-char-template-57354" transform="scale(0.00048828125,-0.00048828125)">
   <path d="M 8,1128 L 1137,1128 1137,0 8,0 8,1128 Z"/>
  </g>
  <g id="bullet-char-template-10146" transform="scale(0.00048828125,-0.00048828125)">
   <path d="M 174,0 L 602,739 174,1481 1456,739 174,0 Z M 1358,739 L 309,1346 659,739 1358,739 Z"/>
  </g>
  <g id="bullet-char-template-10132" transform="scale(0.00048828125,-0.00048828125)">
   <path d="M 2015,739 L 1276,0 717,0 1260,543 174,543 174,936 1260,936 717,1481 1274,1481 2015,739 Z"/>
  </g>
  <g id="bullet-char-template-10007" transform="scale(0.00048828125,-0.00048828125)">
   <path d="M 0,-2 C -7,14 -16,27 -25,37 L 356,567 C 262,823 215,952 215,954 215,979 228,992 255,992 264,992 276,990 289,987 310,991 331,999 354,1012 L 381,999 492,748 772,1049 836,1024 860,1049 C 881,1039 901,1025 922,1006 886,937 835,863 770,784 769,783 710,716 594,584 L 774,223 C 774,196 753,168 711,139 L 727,119 C 717,90 699,76 672,76 641,76 570,178 457,381 L 164,-76 C 142,-110 111,-127 72,-127 30,-127 9,-110 8,-76 1,-67 -2,-52 -2,-32 -2,-23 -1,-13 0,-2 Z"/>
  </g>
  <g id="bullet-char-template-10004" transform="scale(0.00048828125,-0.00048828125)">
   <path d="M 285,-33 C 182,-33 111,30 74,156 52,228 41,333 41,471 41,549 55,616 82,672 116,743 169,778 240,778 293,778 328,747 346,684 L 369,508 C 377,444 397,411 428,410 L 1163,1116 C 1174,1127 1196,1133 1229,1133 1271,1133 1292,1118 1292,1087 L 1292,965 C 1292,929 1282,901 1262,881 L 442,47 C 390,-6 338,-33 285,-33 Z"/>
  </g>
  <g id="bullet-char-template-9679" transform="scale(0.00048828125,-0.00048828125)">
   <path d="M 813,0 C 632,0 489,54 383,161 276,268 223,411 223,592 223,773 276,916 383,1023 489,1130 632,1184 813,1184 992,1184 1136,1130 1245,1023 1353,916 1407,772 1407,592 1407,412 1353,268 1245,161 1136,54 992,0 813,0 Z"/>
  </g>
  <g id="bullet-char-template-8226" transform="scale(0.00048828125,-0.00048828125)">
   <path d="M 346,457 C 273,457 209,483 155,535 101,586 74,649 74,723 74,796 101,859 155,911 209,963 273,989 346,989 419,989 480,963 531,910 582,859 608,796 608,723 608,648 583,586 532,535 482,483 420,457 346,457 Z"/>
  </g>
  <g id="bullet-char-template-8211" transform="scale(0.00048828125,-0.00048828125)">
   <path d="M -4,459 L 1135,459 1135,606 -4,606 -4,459 Z"/>
  </g>
  <g id="bullet-char-template-61548" transform="scale(0.00048828125,-0.00048828125)">
   <path d="M 173,740 C 173,903 231,1043 346,1159 462,1274 601,1332 765,1332 928,1332 1067,1274 1183,1159 1299,1043 1357,903 1357,740 1357,577 1299,437 1183,322 1067,206 928,148 765,148 601,148 462,206 346,322 231,437 173,577 173,740 Z"/>
  </g>
 </defs>
 <g>
  <g id="id2" class="Master_Slide">
   <g id="bg-id2" class="Background"/>
   <g id="bo-id2" class="BackgroundObjects"/>
  </g>
 </g>
 <g class="SlideGroup">
  <g>
   <g id="container-id1">
    <g id="id1" class="Slide" clip-path="url(#presentation_clip_path)">
     <g class="Page">
      <g class="com.sun.star.drawing.CustomShape">
       <g id="id3">
        <rect class="BoundingBox" stroke="none" fill="none" x="870" y="871" width="6135" height="6133"/>
        <path fill="none" stroke="rgb(38,53,115)" stroke-width="35" stroke-linejoin="round" d="M 6986,3937 C 6986,4472 6845,4998 6578,5461 6310,5924 5925,6309 5462,6577 4998,6844 4472,6985 3937,6985 3402,6985 2876,6844 2413,6577 1949,6309 1564,5924 1296,5461 1029,4998 888,4472 888,3937 888,3402 1029,2876 1296,2413 1564,1950 1949,1565 2412,1297 2876,1030 3402,889 3937,889 4472,889 4998,1030 5461,1297 5925,1565 6310,1950 6578,2413 6845,2876 6986,3402 6986,3937 L 6986,3937 Z"/>
       </g>
      </g>
      <g class="com.sun.star.drawing.CustomShape">
       <g id="id4">
        <rect class="BoundingBox" stroke="none" fill="none" x="997" y="997" width="5880" height="5880"/>
        <path fill="none" stroke="rgb(38,53,115)" stroke-width="35" stroke-linejoin="round" d="M 1015,3936 C 1015,3424 1150,2920 1406,2476 1663,2032 2032,1663 2476,1406 2920,1150 3424,1015 3936,1015 4449,1015 4953,1150 5397,1406 5841,1663 6210,2032 6467,2476 6723,2920 6858,3424 6858,3936 6858,4449 6723,4953 6467,5397 6210,5841 5841,6210 5397,6467 4953,6723 4449,6858 3937,6858 3424,6858 2920,6723 2476,6467 2032,6210 1663,5841 1406,5397 1150,4953 1015,4449 1015,3937 L 1015,3936 Z"/>
       </g>
      </g>
      <g class="com.sun.star.drawing.CustomShape">
       <g id="id5">
        <rect class="BoundingBox" stroke="none" fill="none" x="3681" y="196" width="512" height="689"/>
        <path fill="rgb(38,53,115)" stroke="none" d="M 3937,197 L 3682,883 4191,883 3937,197 Z"/>
        <path fill="none" stroke="rgb(38,53,115)" d="M 3937,197 L 3682,883 4191,883 3937,197 Z"/>
       </g>
      </g>
      <g class="com.sun.star.drawing.CustomShape">
       <g id="id6">
        <rect class="BoundingBox" stroke="none" fill="none" x="2825" y="2825" width="1609" height="1597"/>
        <path fill="rgb(145,145,145)" stroke="none" d="M 2826,2826 L 4432,3698 3710,4420 2826,2826 Z"/>
        <path fill="none" stroke="rgb(145,145,145)" d="M 2826,2826 L 4432,3698 3710,4420 2826,2826 Z"/>
       </g>
      </g>
      <g class="com.sun.star.drawing.CustomShape">
       <g id="id7">
        <rect class="BoundingBox" stroke="none" fill="none" x="3396" y="3394" width="1654" height="1655"/>
        <path fill="rgb(145,145,145)" stroke="none" d="M 5048,5047 L 3397,4120 4123,3395 5048,5047 Z"/>
        <path fill="none" stroke="rgb(145,145,145)" d="M 5048,5047 L 3397,4120 4123,3395 5048,5047 Z"/>
       </g>
      </g>
      <g class="com.sun.star.drawing.CustomShape">
       <g id="id8">
        <rect class="BoundingBox" stroke="none" fill="none" x="3461" y="2824" width="1590" height="1615"/>
        <path fill="rgb(145,145,145)" stroke="none" d="M 5049,2825 L 3462,3717 4182,4437 5049,2825 Z"/>
        <path fill="none" stroke="rgb(145,145,145)" d="M 5049,2825 L 3462,3717 4182,4437 5049,2825 Z"/>
       </g>
      </g>
      <g class="com.sun.star.drawing.CustomShape">
       <g id="id9">
        <rect class="BoundingBox" stroke="none" fill="none" x="3554" y="3953" width="766" height="2041"/>
        <path fill="rgb(145,145,145)" stroke="none" d="M 3937,5992 L 3555,3954 4318,3954 3937,5992 Z"/>
        <path fill="none" stroke="rgb(145,145,145)" d="M 3937,5992 L 3555,3954 4318,3954 3937,5992 Z"/>
       </g>
      </g>
      <g class="com.sun.star.drawing.CustomShape">
       <g id="id10">
        <rect class="BoundingBox" stroke="none" fill="none" x="3554" y="1878" width="766" height="2035"/>
        <path fill="rgb(145,145,145)" stroke="none" d="M 3937,1879 L 3555,3911 4318,3911 3937,1879 Z"/>
        <path fill="none" stroke="rgb(145,145,145)" d="M 3937,1879 L 3555,3911 4318,3911 3937,1879 Z"/>
       </g>
      </g>
      <g class="com.sun.star.drawing.CustomShape">
       <g id="id11">
        <rect class="BoundingBox" stroke="none" fill="none" x="3959" y="3554" width="2036" height="766"/>
        <path fill="rgb(145,145,145)" stroke="none" d="M 5993,3937 L 3960,3555 3960,4318 5993,3937 Z"/>
        <path fill="none" stroke="rgb(145,145,145)" d="M 5993,3937 L 3960,3555 3960,4318 5993,3937 Z"/>
       </g>
      </g>
      <g class="com.sun.star.drawing.CustomShape">
       <g id="id12">
        <rect class="BoundingBox" stroke="none" fill="none" x="1878" y="3554" width="2041" height="766"/>
        <path fill="rgb(145,145,145)" stroke="none" d="M 1879,3937 L 3917,3555 3917,4318 1879,3937 Z"/>
        <path fill="none" stroke="rgb(145,145,145)" d="M 1879,3937 L 3917,3555 3917,4318 1879,3937 Z"/>
       </g>
      </g>
      <g class="com.sun.star.drawing.CustomShape">
       <g id="id13">
        <rect class="BoundingBox" stroke="none" fill="none" x="2825" y="3443" width="1595" height="1608"/>
        <path fill="rgb(145,145,145)" stroke="none" d="M 2826,5049 L 4418,4166 3695,3444 2826,5049 Z"/>
        <path fill="none" stroke="rgb(145,145,145)" d="M 2826,5049 L 4418,4166 3695,3444 2826,5049 Z"/>
       </g>
      </g>
      <g class="com.sun.star.drawing.CustomShape">
       <g id="id14">
        <rect class="BoundingBox" stroke="none" fill="none" x="86" y="86" width="7704" height="7698"/>
        <path fill="none" stroke="rgb(38,53,115)" stroke-width="81" stroke-linejoin="round" d="M 7748,3935 C 7748,4603 7572,5259 7237,5838 6903,6417 6422,6898 5843,7232 5263,7566 4606,7742 3938,7742 3269,7742 2612,7566 2032,7232 1453,6898 972,6417 638,5838 303,5259 127,4603 127,3935 127,3266 303,2610 638,2031 972,1452 1453,971 2032,637 2612,303 3269,127 3937,127 4606,127 5263,303 5843,637 6422,971 6903,1452 7237,2031 7572,2610 7748,3266 7748,3934 L 7748,3935 Z"/>
       </g>
      </g>
      <g class="com.sun.star.drawing.CustomShape">
       <g id="id15">
        <rect class="BoundingBox" stroke="none" fill="none" x="3809" y="2686" width="2776" height="1520"/>
        <path fill="rgb(114,159,207)" stroke="none" d="M 6583,2687 L 4065,4204 3810,3670 6583,2687 Z"/>
        <path fill="none" stroke="rgb(114,159,207)" d="M 6583,2687 L 4065,4204 3810,3670 6583,2687 Z"/>
       </g>
      </g>
      <g class="com.sun.star.drawing.CustomShape">
       <g id="id16">
        <rect class="BoundingBox" stroke="none" fill="none" x="1290" y="3669" width="2775" height="1526"/>
        <path fill="rgb(193,49,49)" stroke="none" d="M 1291,5193 L 3809,3670 4063,4202 1291,5193 Z"/>
        <path fill="none" stroke="rgb(193,49,49)" d="M 1291,5193 L 3809,3670 4063,4202 1291,5193 Z"/>
       </g>
      </g>
      <g class="com.sun.star.drawing.CustomShape">
       <g id="id17">
        <rect class="BoundingBox" stroke="none" fill="none" x="5998" y="1327" width="551" height="549"/>
        <path fill="rgb(38,53,115)" stroke="none" d="M 6547,1328 L 5999,1670 6202,1874 6547,1328 Z"/>
        <path fill="none" stroke="rgb(38,53,115)" d="M 6547,1328 L 5999,1670 6202,1874 6547,1328 Z"/>
       </g>
      </g>
      <g class="com.sun.star.drawing.CustomShape">
       <g id="id18">
        <rect class="BoundingBox" stroke="none" fill="none" x="2457" y="627" width="280" height="412"/>
        <path fill="rgb(38,53,115)" stroke="none" d="M 2735,1037 L 2720,628 2458,737 2735,1037 Z"/>
        <path fill="none" stroke="rgb(38,53,115)" d="M 2735,1037 L 2720,628 2458,737 2735,1037 Z"/>
       </g>
      </g>
      <g class="com.sun.star.drawing.CustomShape">
       <g id="id19">
        <rect class="BoundingBox" stroke="none" fill="none" x="2457" y="482" width="265" height="256"/>
        <path fill="rgb(38,53,115)" stroke="none" d="M 2506,483 L 2720,627 2458,736 2506,483 Z"/>
        <path fill="none" stroke="rgb(38,53,115)" d="M 2506,483 L 2720,627 2458,736 2506,483 Z"/>
       </g>
      </g>
      <g class="com.sun.star.drawing.CustomShape">
       <g id="id20">
        <rect class="BoundingBox" stroke="none" fill="none" x="6992" y="3682" width="689" height="512"/>
        <path fill="rgb(38,53,115)" stroke="none" d="M 7679,3937 L 6993,4192 6993,3683 7679,3937 Z"/>
        <path fill="none" stroke="rgb(38,53,115)" d="M 7679,3937 L 6993,4192 6993,3683 7679,3937 Z"/>
       </g>
      </g>
      <g class="com.sun.star.drawing.CustomShape">
       <g id="id21">
        <rect class="BoundingBox" stroke="none" fill="none" x="195" y="3682" width="689" height="512"/>
        <path fill="rgb(38,53,115)" stroke="none" d="M 196,3937 L 882,4192 882,3683 196,3937 Z"/>
        <path fill="none" stroke="rgb(38,53,115)" d="M 196,3937 L 882,4192 882,3683 196,3937 Z"/>
       </g>
      </g>
      <g class="com.sun.star.drawing.CustomShape">
       <g id="id22">
        <rect class="BoundingBox" stroke="none" fill="none" x="3682" y="6991" width="512" height="689"/>
        <path fill="rgb(38,53,115)" stroke="none" d="M 3937,7678 L 4192,6992 3683,6992 3937,7678 Z"/>
        <path fill="none" stroke="rgb(38,53,115)" d="M 3937,7678 L 4192,6992 3683,6992 3937,7678 Z"/>
       </g>
      </g>
      <g class="com.sun.star.drawing.CustomShape">
       <g id="id23">
        <rect class="BoundingBox" stroke="none" fill="none" x="4195" y="432" width="285" height="387"/>
        <path fill="rgb(38,53,115)" stroke="none" d="M 4337,817 L 4478,433 4196,433 4337,817 Z"/>
        <path fill="none" stroke="rgb(38,53,115)" d="M 4337,817 L 4478,433 4196,433 4337,817 Z"/>
       </g>
      </g>
      <g class="com.sun.star.drawing.CustomShape">
       <g id="id24">
        <rect class="BoundingBox" stroke="none" fill="none" x="3395" y="432" width="285" height="387"/>
        <path fill="rgb(38,53,115)" stroke="none" d="M 3537,817 L 3678,433 3396,433 3537,817 Z"/>
        <path fill="none" stroke="rgb(38,53,115)" d="M 3537,817 L 3678,433 3396,433 3537,817 Z"/>
       </g>
      </g>
      <g class="com.sun.star.drawing.CustomShape">
       <g id="id25">
        <rect class="BoundingBox" stroke="none" fill="none" x="628" y="2457" width="411" height="281"/>
        <path fill="rgb(38,53,115)" stroke="none" d="M 1037,2736 L 737,2458 629,2720 1037,2736 Z"/>
        <path fill="none" stroke="rgb(38,53,115)" d="M 1037,2736 L 737,2458 629,2720 1037,2736 Z"/>
       </g>
      </g>
      <g class="com.sun.star.drawing.CustomShape">
       <g id="id26">
        <rect class="BoundingBox" stroke="none" fill="none" x="483" y="2457" width="256" height="265"/>
        <path fill="rgb(38,53,115)" stroke="none" d="M 484,2507 L 737,2458 629,2720 484,2507 Z"/>
        <path fill="none" stroke="rgb(38,53,115)" d="M 484,2507 L 737,2458 629,2720 484,2507 Z"/>
       </g>
      </g>
      <g class="com.sun.star.drawing.CustomShape">
       <g id="id27">
        <rect class="BoundingBox" stroke="none" fill="none" x="629" y="5138" width="412" height="280"/>
        <path fill="rgb(38,53,115)" stroke="none" d="M 1039,5139 L 630,5154 739,5416 1039,5139 Z"/>
        <path fill="none" stroke="rgb(38,53,115)" d="M 1039,5139 L 630,5154 739,5416 1039,5139 Z"/>
       </g>
      </g>
      <g class="com.sun.star.drawing.CustomShape">
       <g id="id28">
        <rect class="BoundingBox" stroke="none" fill="none" x="484" y="5153" width="256" height="265"/>
        <path fill="rgb(38,53,115)" stroke="none" d="M 485,5368 L 629,5154 738,5416 485,5368 Z"/>
        <path fill="none" stroke="rgb(38,53,115)" d="M 485,5368 L 629,5154 738,5416 485,5368 Z"/>
       </g>
      </g>
      <g class="com.sun.star.drawing.LineShape">
       <g id="id29">
        <rect class="BoundingBox" stroke="none" fill="none" x="2456" y="624" width="266" height="116"/>
        <path fill="none" stroke="rgb(38,53,115)" stroke-width="7" stroke-linejoin="round" d="M 2460,735 L 2717,628"/>
       </g>
      </g>
      <g class="com.sun.star.drawing.LineShape">
       <g id="id30">
        <rect class="BoundingBox" stroke="none" fill="none" x="626" y="2456" width="115" height="267"/>
        <path fill="none" stroke="rgb(38,53,115)" stroke-width="7" stroke-linejoin="round" d="M 630,2718 L 736,2460"/>
       </g>
      </g>
      <g class="com.sun.star.drawing.LineShape">
       <g id="id31">
        <rect class="BoundingBox" stroke="none" fill="none" x="627" y="5152" width="115" height="267"/>
        <path fill="none" stroke="rgb(38,53,115)" stroke-width="7" stroke-linejoin="round" d="M 737,5414 L 631,5156"/>
       </g>
      </g>
      <g class="com.sun.star.drawing.CustomShape">
       <g id="id32">
        <rect class="BoundingBox" stroke="none" fill="none" x="5136" y="6832" width="280" height="412"/>
        <path fill="rgb(38,53,115)" stroke="none" d="M 5137,6833 L 5152,7242 5414,7133 5137,6833 Z"/>
        <path fill="none" stroke="rgb(38,53,115)" d="M 5137,6833 L 5152,7242 5414,7133 5137,6833 Z"/>
       </g>
      </g>
      <g class="com.sun.star.drawing.CustomShape">
       <g id="id33">
        <rect class="BoundingBox" stroke="none" fill="none" x="5151" y="7132" width="265" height="256"/>
        <path fill="rgb(38,53,115)" stroke="none" d="M 5366,7386 L 5152,7242 5414,7133 5366,7386 Z"/>
        <path fill="none" stroke="rgb(38,53,115)" d="M 5366,7386 L 5152,7242 5414,7133 5366,7386 Z"/>
       </g>
      </g>
      <g class="com.sun.star.drawing.LineShape">
       <g id="id34">
        <rect class="BoundingBox" stroke="none" fill="none" x="5149" y="7130" width="266" height="115"/>
        <path fill="none" stroke="rgb(38,53,115)" stroke-width="7" stroke-linejoin="round" d="M 5410,7134 L 5153,7240"/>
       </g>
      </g>
      <g class="com.sun.star.drawing.CustomShape">
       <g id="id35">
        <rect class="BoundingBox" stroke="none" fill="none" x="6833" y="5137" width="411" height="281"/>
        <path fill="rgb(38,53,115)" stroke="none" d="M 6834,5138 L 7134,5416 7242,5154 6834,5138 Z"/>
        <path fill="none" stroke="rgb(38,53,115)" d="M 6834,5138 L 7134,5416 7242,5154 6834,5138 Z"/>
       </g>
      </g>
      <g class="com.sun.star.drawing.CustomShape">
       <g id="id36">
        <rect class="BoundingBox" stroke="none" fill="none" x="7133" y="5153" width="256" height="265"/>
        <path fill="rgb(38,53,115)" stroke="none" d="M 7387,5367 L 7134,5416 7242,5154 7387,5367 Z"/>
        <path fill="none" stroke="rgb(38,53,115)" d="M 7387,5367 L 7134,5416 7242,5154 7387,5367 Z"/>
       </g>
      </g>
      <g class="com.sun.star.drawing.LineShape">
       <g id="id37">
        <rect class="BoundingBox" stroke="none" fill="none" x="7130" y="5152" width="116" height="267"/>
        <path fill="none" stroke="rgb(38,53,115)" stroke-width="7" stroke-linejoin="round" d="M 7241,5156 L 7134,5414"/>
       </g>
      </g>
      <g class="com.sun.star.drawing.CustomShape">
       <g id="id38">
        <rect class="BoundingBox" stroke="none" fill="none" x="6833" y="2459" width="412" height="280"/>
        <path fill="rgb(38,53,115)" stroke="none" d="M 6834,2737 L 7243,2722 7134,2460 6834,2737 Z"/>
        <path fill="none" stroke="rgb(38,53,115)" d="M 6834,2737 L 7243,2722 7134,2460 6834,2737 Z"/>
       </g>
      </g>
      <g class="com.sun.star.drawing.CustomShape">
       <g id="id39">
        <rect class="BoundingBox" stroke="none" fill="none" x="7134" y="2459" width="256" height="265"/>
        <path fill="rgb(38,53,115)" stroke="none" d="M 7388,2508 L 7244,2722 7135,2460 7388,2508 Z"/>
        <path fill="none" stroke="rgb(38,53,115)" d="M 7388,2508 L 7244,2722 7135,2460 7388,2508 Z"/>
       </g>
      </g>
      <g class="com.sun.star.drawing.LineShape">
       <g id="id40">
        <rect class="BoundingBox" stroke="none" fill="none" x="7132" y="2457" width="116" height="267"/>
        <path fill="none" stroke="rgb(38,53,115)" stroke-width="7" stroke-linejoin="round" d="M 7136,2461 L 7243,2719"/>
       </g>
      </g>
      <g class="com.sun.star.drawing.CustomShape">
       <g id="id41">
        <rect class="BoundingBox" stroke="none" fill="none" x="5137" y="630" width="281" height="411"/>
        <path fill="rgb(38,53,115)" stroke="none" d="M 5138,1039 L 5416,739 5154,631 5138,1039 Z"/>
        <path fill="none" stroke="rgb(38,53,115)" d="M 5138,1039 L 5416,739 5154,631 5138,1039 Z"/>
       </g>
      </g>
      <g class="com.sun.star.drawing.CustomShape">
       <g id="id42">
        <rect class="BoundingBox" stroke="none" fill="none" x="5153" y="485" width="265" height="256"/>
        <path fill="rgb(38,53,115)" stroke="none" d="M 5367,486 L 5416,739 5154,631 5367,486 Z"/>
        <path fill="none" stroke="rgb(38,53,115)" d="M 5367,486 L 5416,739 5154,631 5367,486 Z"/>
       </g>
      </g>
      <g class="com.sun.star.drawing.LineShape">
       <g id="id43">
        <rect class="BoundingBox" stroke="none" fill="none" x="5152" y="628" width="267" height="116"/>
        <path fill="none" stroke="rgb(38,53,115)" stroke-width="7" stroke-linejoin="round" d="M 5156,632 L 5414,739"/>
       </g>
      </g>
      <g class="com.sun.star.drawing.CustomShape">
       <g id="id44">
        <rect class="BoundingBox" stroke="none" fill="none" x="6000" y="5998" width="549" height="551"/>
        <path fill="rgb(38,53,115)" stroke="none" d="M 6547,6547 L 6205,5999 6001,6202 6547,6547 Z"/>
        <path fill="none" stroke="rgb(38,53,115)" d="M 6547,6547 L 6205,5999 6001,6202 6547,6547 Z"/>
       </g>
      </g>
      <g class="com.sun.star.drawing.CustomShape">
       <g id="id45">
        <rect class="BoundingBox" stroke="none" fill="none" x="1326" y="5999" width="549" height="551"/>
        <path fill="rgb(38,53,115)" stroke="none" d="M 1327,6548 L 1669,6000 1873,6203 1327,6548 Z"/>
        <path fill="none" stroke="rgb(38,53,115)" d="M 1327,6548 L 1669,6000 1873,6203 1327,6548 Z"/>
       </g>
      </g>
      <g class="com.sun.star.drawing.CustomShape">
       <g id="id46">
        <rect class="BoundingBox" stroke="none" fill="none" x="1327" y="1326" width="551" height="549"/>
        <path fill="rgb(38,53,115)" stroke="none" d="M 1328,1327 L 1876,1669 1673,1873 1328,1327 Z"/>
        <path fill="none" stroke="rgb(38,53,115)" d="M 1328,1327 L 1876,1669 1673,1873 1328,1327 Z"/>
       </g>
      </g>
      <g class="com.sun.star.drawing.CustomShape">
       <g id="id47">
        <rect class="BoundingBox" stroke="none" fill="none" x="2458" y="6834" width="281" height="411"/>
        <path fill="rgb(38,53,115)" stroke="none" d="M 2737,6835 L 2459,7135 2721,7243 2737,6835 Z"/>
        <path fill="none" stroke="rgb(38,53,115)" d="M 2737,6835 L 2459,7135 2721,7243 2737,6835 Z"/>
       </g>
      </g>
      <g class="com.sun.star.drawing.CustomShape">
       <g id="id48">
        <rect class="BoundingBox" stroke="none" fill="none" x="2458" y="7135" width="265" height="256"/>
        <path fill="rgb(38,53,115)" stroke="none" d="M 2508,7389 L 2459,7136 2721,7244 2508,7389 Z"/>
        <path fill="none" stroke="rgb(38,53,115)" d="M 2508,7389 L 2459,7136 2721,7244 2508,7389 Z"/>
       </g>
      </g>
      <g class="com.sun.star.drawing.LineShape">
       <g id="id49">
        <rect class="BoundingBox" stroke="none" fill="none" x="2457" y="7131" width="266" height="116"/>
        <path fill="none" stroke="rgb(38,53,115)" stroke-width="7" stroke-linejoin="round" d="M 2718,7242 L 2461,7135"/>
       </g>
      </g>
     </g>
    </g>
   </g>
  </g>
 </g>
</svg>