<?xml version="1.0" encoding="UTF-8"?>
<!DOCTYPE svg PUBLIC "-//W3C//DTD SVG 1.1//EN" "http://www.w3.org/Graphics/SVG/1.1/DTD/svg11.dtd">
<svg version="1.2" width="77.02mm" height="76.96mm" viewBox="2992 1220 7702 7696" preserveAspectRatio="xMidYMid" fill-rule="evenodd" stroke-width="28.222" stroke-linejoin="round" xmlns="http://www.w3.org/2000/svg" xmlns:ooo="http://xml.openoffice.org/svg/export" xmlns:xlink="http://www.w3.org/1999/xlink" xmlns:presentation="http://sun.com/xmlns/staroffice/presentation" xmlns:smil="http://www.w3.org/2001/SMIL20/" xmlns:anim="urn:oasis:names:tc:opendocument:xmlns:animation:1.0" xml:space="preserve">
 <defs class="ClipPathGroup">
  <clipPath id="presentation_clip_path" clipPathUnits="userSpaceOnUse">
   <rect x="2992" y="1220" width="7702" height="7696"/>
  </clipPath>
  <clipPath id="presentation_clip_path_shrink" clipPathUnits="userSpaceOnUse">
   <rect x="2999" y="1227" width="7687" height="7681"/>
  </clipPath>
 </defs>
 <defs class="TextShapeIndex">
  <g ooo:slide="id1" ooo:id-list="id3 id4 id5 id6 id7 id8 id9 id10 id11 id12 id13 id14 id15 id16 id17 id18 id19 id20 id21 id22 id23 id24 id25 id26 id27 id28 id29 id30 id31 id32 id33"/>
 </defs>
 <defs class="EmbeddedBulletChars">
  <g id="bullet-char-template-57356" transform="scale(0.00048828125,-0.00048828125)">
   <path d="M 580,1141 L 1163,571 580,0 -4,571 580,1141 Z"/>
  </g>
  <g id="bullet-char-template-57354" transform="scale(0.00048828125,-0.00048828125)">
   <path d="M 8,1128 L 1137,1128 1137,0 8,0 8,1128 Z"/>
  </g>
  <g id="bullet-char-template-10146" transform="scale(0.00048828125,-0.00048828125)">
   <path d="M 174,0 L 602,739 174,1481 1456,739 174,0 Z M 1358,739 L 309,1346 659,739 1358,739 Z"/>
  </g>
  <g id="bullet-char-template-10132" transform="scale(0.00048828125,-0.00048828125)">
   <path d="M 2015,739 L 1276,0 717,0 1260,543 174,543 174,936 1260,936 717,1481 1274,1481 2015,739 Z"/>
  </g>
  <g id="bullet-char-template-10007" transform="scale(0.00048828125,-0.00048828125)">
   <path d="M 0,-2 C -7,14 -16,27 -25,37 L 356,567 C 262,823 215,952 215,954 215,979 228,992 255,992 264,992 276,990 289,987 310,991 331,999 354,1012 L 381,999 492,748 772,1049 836,1024 860,1049 C 881,1039 901,1025 922,1006 886,937 835,863 770,784 769,783 710,716 594,584 L 774,223 C 774,196 753,168 711,139 L 727,119 C 717,90 699,76 672,76 641,76 570,178 457,381 L 164,-76 C 142,-110 111,-127 72,-127 30,-127 9,-110 8,-76 1,-67 -2,-52 -2,-32 -2,-23 -1,-13 0,-2 Z"/>
  </g>
  <g id="bullet-char-template-10004" transform="scale(0.00048828125,-0.00048828125)">
   <path d="M 285,-33 C 182,-33 111,30 74,156 52,228 41,333 41,471 41,549 55,616 82,672 116,743 169,778 240,778 293,778 328,747 346,684 L 369,508 C 377,444 397,411 428,410 L 1163,1116 C 1174,1127 1196,1133 1229,1133 1271,1133 1292,1118 1292,1087 L 1292,965 C 1292,929 1282,901 1262,881 L 442,47 C 390,-6 338,-33 285,-33 Z"/>
  </g>
  <g id="bullet-char-template-9679" transform="scale(0.00048828125,-0.00048828125)">
   <path d="M 813,0 C 632,0 489,54 383,161 276,268 223,411 223,592 223,773 276,916 383,1023 489,1130 632,1184 813,1184 992,1184 1136,1130 1245,1023 1353,916 1407,772 1407,592 1407,412 1353,268 1245,161 1136,54 992,0 813,0 Z"/>
  </g>
  <g id="bullet-char-template-8226" transform="scale(0.00048828125,-0.00048828125)">
   <path d="M 346,457 C 273,457 209,483 155,535 101,586 74,649 74,723 74,796 101,859 155,911 209,963 273,989 346,989 419,989 480,963 531,910 582,859 608,796 608,723 608,648 583,586 532,535 482,483 420,457 346,457 Z"/>
  </g>
  <g id="bullet-char-template-8211" transform="scale(0.00048828125,-0.00048828125)">
   <path d="M -4,459 L 1135,459 1135,606 -4,606 -4,459 Z"/>
  </g>
  <g id="bullet-char-template-61548" transform="scale(0.00048828125,-0.00048828125)">
   <path d="M 173,740 C 173,903 231,1043 346,1159 462,1274 601,1332 765,1332 928,1332 1067,1274 1183,1159 1299,1043 1357,903 1357,740 1357,577 1299,437 1183,322 1067,206 928,148 765,148 601,148 462,206 346,322 231,437 173,577 173,740 Z"/>
  </g>
 </defs>
 <defs class="TextEmbeddedBitmaps"/>
 <g class="SlideGroup">
  <g>
   <g id="container-id1">
    <g id="id1" class="Slide" clip-path="url(#presentation_clip_path)">
     <g class="Page">
      <g class="com.sun.star.drawing.CustomShape">
       <g id="id3">
        <rect class="BoundingBox" stroke="none" fill="none" x="9796" y="6326" width="457" height="278"/>
        <path fill="rgb(38,53,115)" stroke="none" d="M 9851,6327 L 10251,6341 10142,6602 9851,6327 Z M 9797,6457 L 9797,6457 Z M 10251,6341 L 10251,6341 Z"/>
        <path fill="none" stroke="rgb(38,53,115)" d="M 9851,6327 L 10251,6341 10142,6602 9851,6327 Z"/>
        <path fill="none" stroke="rgb(38,53,115)" d="M 9797,6457 L 9797,6457 Z"/>
        <path fill="none" stroke="rgb(38,53,115)" d="M 10251,6341 L 10251,6341 Z"/>
       </g>
      </g>
      <g class="com.sun.star.drawing.CustomShape">
       <g id="id4">
        <rect class="BoundingBox" stroke="none" fill="none" x="9041" y="7394" width="478" height="367"/>
        <path fill="rgb(38,53,115)" stroke="none" d="M 9144,7395 L 9517,7556 9313,7759 9144,7395 Z M 9042,7497 L 9042,7497 Z M 9517,7556 L 9517,7556 Z"/>
        <path fill="none" stroke="rgb(38,53,115)" d="M 9144,7395 L 9517,7556 9313,7759 9144,7395 Z"/>
        <path fill="none" stroke="rgb(38,53,115)" d="M 9042,7497 L 9042,7497 Z"/>
        <path fill="none" stroke="rgb(38,53,115)" d="M 9517,7556 L 9517,7556 Z"/>
       </g>
      </g>
      <g class="com.sun.star.drawing.CustomShape">
       <g id="id5">
        <rect class="BoundingBox" stroke="none" fill="none" x="3774" y="2015" width="6117" height="6115"/>
        <path fill="none" stroke="rgb(38,53,115)" stroke-width="18" stroke-linejoin="round" d="M 6831,2024 C 8559,2024 9880,3343 9880,5071 9880,6799 8559,8119 6831,8119 5103,8119 3783,6799 3783,5071 3783,3343 5103,2024 6831,2024 Z"/>
       </g>
      </g>
      <g class="com.sun.star.drawing.CustomShape">
       <g id="id6">
        <rect class="BoundingBox" stroke="none" fill="none" x="3882" y="2131" width="5879" height="5879"/>
        <path fill="none" stroke="rgb(38,53,115)" stroke-width="18" stroke-linejoin="round" d="M 6820,2140 C 8481,2140 9750,3408 9750,5069 9750,6730 8481,7999 6820,7999 5159,7999 3891,6730 3891,5069 3891,3408 5159,2140 6820,2140 Z"/>
       </g>
      </g>
      <g class="com.sun.star.drawing.CustomShape">
       <g id="id7">
        <rect class="BoundingBox" stroke="none" fill="none" x="6535" y="1412" width="586" height="593"/>
        <path fill="rgb(38,53,115)" stroke="none" d="M 6828,2003 L 6536,1413 7119,1413 6828,2003 Z M 7119,2003 L 7119,2003 Z M 6536,1413 L 6536,1413 Z"/>
        <path fill="none" stroke="rgb(38,53,115)" d="M 6828,2003 L 6536,1413 7119,1413 6828,2003 Z"/>
        <path fill="none" stroke="rgb(38,53,115)" d="M 7119,2003 L 7119,2003 Z"/>
        <path fill="none" stroke="rgb(38,53,115)" d="M 6536,1413 L 6536,1413 Z"/>
       </g>
      </g>
      <g class="com.sun.star.drawing.CustomShape">
       <g id="id8">
        <rect class="BoundingBox" stroke="none" fill="none" x="3179" y="4778" width="589" height="588"/>
        <path fill="rgb(38,53,115)" stroke="none" d="M 3766,5071 L 3180,5364 3180,4779 3766,5071 Z M 3766,4779 L 3766,4779 Z M 3180,5364 L 3180,5364 Z"/>
        <path fill="none" stroke="rgb(38,53,115)" d="M 3766,5071 L 3180,5364 3180,4779 3766,5071 Z"/>
        <path fill="none" stroke="rgb(38,53,115)" d="M 3766,4779 L 3766,4779 Z"/>
        <path fill="none" stroke="rgb(38,53,115)" d="M 3180,5364 L 3180,5364 Z"/>
       </g>
      </g>
      <g class="com.sun.star.drawing.CustomShape">
       <g id="id9">
        <rect class="BoundingBox" stroke="none" fill="none" x="9897" y="4777" width="588" height="588"/>
        <path fill="rgb(38,53,115)" stroke="none" d="M 9898,5071 L 10483,4778 10483,5363 9898,5071 Z M 9898,5363 L 9898,5363 Z M 10483,4778 L 10483,4778 Z"/>
        <path fill="none" stroke="rgb(38,53,115)" d="M 9898,5071 L 10483,4778 10483,5363 9898,5071 Z"/>
        <path fill="none" stroke="rgb(38,53,115)" d="M 9898,5363 L 9898,5363 Z"/>
        <path fill="none" stroke="rgb(38,53,115)" d="M 10483,4778 L 10483,4778 Z"/>
       </g>
      </g>
      <g class="com.sun.star.drawing.CustomShape">
       <g id="id10">
        <rect class="BoundingBox" stroke="none" fill="none" x="5380" y="3998" width="2183" height="1807"/>
        <path fill="rgb(145,145,145)" stroke="none" d="M 5743,3999 L 7561,5080 6838,5803 5743,3999 Z M 5381,4360 L 5381,4360 Z M 7561,5080 L 7561,5080 Z"/>
        <path fill="none" stroke="rgb(145,145,145)" d="M 5743,3999 L 7561,5080 6838,5803 5743,3999 Z"/>
        <path fill="none" stroke="rgb(145,145,145)" d="M 5381,4360 L 5381,4360 Z"/>
        <path fill="none" stroke="rgb(145,145,145)" d="M 7561,5080 L 7561,5080 Z"/>
       </g>
      </g>
      <g class="com.sun.star.drawing.CustomShape">
       <g id="id11">
        <rect class="BoundingBox" stroke="none" fill="none" x="6100" y="4345" width="2168" height="1807"/>
        <path fill="rgb(145,145,145)" stroke="none" d="M 7903,6150 L 6101,5072 6827,4346 7903,6150 Z M 8266,5787 L 8266,5787 Z M 6101,5072 L 6101,5072 Z"/>
        <path fill="none" stroke="rgb(145,145,145)" d="M 7903,6150 L 6101,5072 6827,4346 7903,6150 Z"/>
        <path fill="none" stroke="rgb(145,145,145)" d="M 8266,5787 L 8266,5787 Z"/>
        <path fill="none" stroke="rgb(145,145,145)" d="M 6101,5072 L 6101,5072 Z"/>
       </g>
      </g>
      <g class="com.sun.star.drawing.CustomShape">
       <g id="id12">
        <rect class="BoundingBox" stroke="none" fill="none" x="6080" y="3995" width="2182" height="1792"/>
        <path fill="rgb(145,145,145)" stroke="none" d="M 7900,3996 L 6082,5065 6803,5785 7900,3996 Z M 8260,4356 L 8260,4356 Z M 6081,5065 L 6081,5065 Z"/>
        <path fill="none" stroke="rgb(145,145,145)" d="M 7900,3996 L 6082,5065 6803,5785 7900,3996 Z"/>
        <path fill="none" stroke="rgb(145,145,145)" d="M 8260,4356 L 8260,4356 Z"/>
        <path fill="none" stroke="rgb(145,145,145)" d="M 6081,5065 L 6081,5065 Z"/>
       </g>
      </g>
      <g class="com.sun.star.drawing.CustomShape">
       <g id="id13">
        <rect class="BoundingBox" stroke="none" fill="none" x="6317" y="5066" width="1016" height="2041"/>
        <path fill="rgb(145,145,145)" stroke="none" d="M 6825,7105 L 6318,5067 7331,5067 6825,7105 Z M 7331,7105 L 7331,7105 Z M 6318,5067 L 6318,5067 Z"/>
        <path fill="none" stroke="rgb(145,145,145)" d="M 6825,7105 L 6318,5067 7331,5067 6825,7105 Z"/>
        <path fill="none" stroke="rgb(145,145,145)" d="M 7331,7105 L 7331,7105 Z"/>
        <path fill="none" stroke="rgb(145,145,145)" d="M 6318,5067 L 6318,5067 Z"/>
       </g>
      </g>
      <g class="com.sun.star.drawing.CustomShape">
       <g id="id14">
        <rect class="BoundingBox" stroke="none" fill="none" x="6317" y="3032" width="1016" height="2035"/>
        <path fill="rgb(145,145,145)" stroke="none" d="M 6825,3033 L 6318,5065 7331,5065 6825,3033 Z M 7331,3033 L 7331,3033 Z M 6318,5065 L 6318,5065 Z"/>
        <path fill="none" stroke="rgb(145,145,145)" d="M 6825,3033 L 6318,5065 7331,5065 6825,3033 Z"/>
        <path fill="none" stroke="rgb(145,145,145)" d="M 7331,3033 L 7331,3033 Z"/>
        <path fill="none" stroke="rgb(145,145,145)" d="M 6318,5065 L 6318,5065 Z"/>
       </g>
      </g>
      <g class="com.sun.star.drawing.CustomShape">
       <g id="id15">
        <rect class="BoundingBox" stroke="none" fill="none" x="6825" y="4565" width="2036" height="1013"/>
        <path fill="rgb(145,145,145)" stroke="none" d="M 8859,5071 L 6826,4566 6826,5576 8859,5071 Z M 8859,5576 L 8859,5576 Z M 6826,4566 L 6826,4566 Z"/>
        <path fill="none" stroke="rgb(145,145,145)" d="M 8859,5071 L 6826,4566 6826,5576 8859,5071 Z"/>
        <path fill="none" stroke="rgb(145,145,145)" d="M 8859,5576 L 8859,5576 Z"/>
        <path fill="none" stroke="rgb(145,145,145)" d="M 6826,4566 L 6826,4566 Z"/>
       </g>
      </g>
      <g class="com.sun.star.drawing.CustomShape">
       <g id="id16">
        <rect class="BoundingBox" stroke="none" fill="none" x="4788" y="4561" width="2041" height="1017"/>
        <path fill="rgb(145,145,145)" stroke="none" d="M 4789,5070 L 6827,4563 6827,5576 4789,5070 Z M 4789,5576 L 4789,5576 Z M 6827,4562 L 6827,4562 Z"/>
        <path fill="none" stroke="rgb(145,145,145)" d="M 4789,5070 L 6827,4563 6827,5576 4789,5070 Z"/>
        <path fill="none" stroke="rgb(145,145,145)" d="M 4789,5576 L 4789,5576 Z"/>
        <path fill="none" stroke="rgb(145,145,145)" d="M 6827,4562 L 6827,4562 Z"/>
       </g>
      </g>
      <g class="com.sun.star.drawing.CustomShape">
       <g id="id17">
        <rect class="BoundingBox" stroke="none" fill="none" x="5381" y="4353" width="2172" height="1795"/>
        <path fill="rgb(145,145,145)" stroke="none" d="M 5743,6146 L 7550,5077 6828,4354 5743,6146 Z M 5382,5785 L 5382,5785 Z M 7551,5076 L 7551,5076 Z"/>
        <path fill="none" stroke="rgb(145,145,145)" d="M 5743,6146 L 7550,5077 6828,4354 5743,6146 Z"/>
        <path fill="none" stroke="rgb(145,145,145)" d="M 5382,5785 L 5382,5785 Z"/>
        <path fill="none" stroke="rgb(145,145,145)" d="M 7551,5076 L 7551,5076 Z"/>
       </g>
      </g>
      <g class="com.sun.star.drawing.CustomShape">
       <g id="id18">
        <rect class="BoundingBox" stroke="none" fill="none" x="2991" y="1219" width="7704" height="7698"/>
        <path fill="none" stroke="rgb(38,53,115)" stroke-width="81" stroke-linejoin="round" d="M 6842,1260 C 9002,1260 10652,2909 10652,5067 10652,7225 9002,8874 6842,8874 4682,8874 3032,7225 3032,5067 3032,2909 4682,1260 6842,1260 Z"/>
       </g>
      </g>
      <g class="Group">
       <g class="com.sun.star.drawing.CustomShape">
        <g id="id19">
         <rect class="BoundingBox" stroke="none" fill="none" x="4177" y="4796" width="2775" height="1791"/>
         <path fill="rgb(193,49,49)" stroke="none" d="M 4178,6320 L 6696,4797 6950,5329 4178,6320 Z M 4304,6585 L 4304,6585 Z M 6696,4797 L 6696,4797 Z"/>
         <path fill="none" stroke="rgb(193,49,49)" d="M 4178,6320 L 6696,4797 6950,5329 4178,6320 Z"/>
         <path fill="none" stroke="rgb(193,49,49)" d="M 4304,6585 L 4304,6585 Z"/>
         <path fill="none" stroke="rgb(193,49,49)" d="M 6696,4797 L 6696,4797 Z"/>
        </g>
       </g>
       <g class="com.sun.star.drawing.CustomShape">
        <g id="id20">
         <rect class="BoundingBox" stroke="none" fill="none" x="6688" y="3541" width="2779" height="1784"/>
         <path fill="rgb(114,159,207)" stroke="none" d="M 9465,3808 L 6943,5323 6689,4790 9465,3808 Z M 9338,3542 L 9338,3542 Z M 6943,5323 L 6943,5323 Z"/>
         <path fill="none" stroke="rgb(114,159,207)" d="M 9465,3808 L 6943,5323 6689,4790 9465,3808 Z"/>
         <path fill="none" stroke="rgb(114,159,207)" d="M 9338,3542 L 9338,3542 Z"/>
         <path fill="none" stroke="rgb(114,159,207)" d="M 6943,5323 L 6943,5323 Z"/>
        </g>
       </g>
      </g>
      <g class="com.sun.star.drawing.CustomShape">
       <g id="id21">
        <rect class="BoundingBox" stroke="none" fill="none" x="6536" y="8130" width="586" height="592"/>
        <path fill="rgb(38,53,115)" stroke="none" d="M 6828,8131 L 7120,8720 6537,8720 6828,8131 Z M 6537,8131 L 6537,8131 Z M 7120,8720 L 7120,8720 Z"/>
        <path fill="none" stroke="rgb(38,53,115)" d="M 6828,8131 L 7120,8720 6537,8720 6828,8131 Z"/>
        <path fill="none" stroke="rgb(38,53,115)" d="M 6537,8131 L 6537,8131 Z"/>
        <path fill="none" stroke="rgb(38,53,115)" d="M 7120,8720 L 7120,8720 Z"/>
       </g>
      </g>
      <g class="com.sun.star.drawing.CustomShape">
       <g id="id22">
        <rect class="BoundingBox" stroke="none" fill="none" x="7943" y="8087" width="400" height="409"/>
        <path fill="rgb(38,53,115)" stroke="none" d="M 8075,8088 L 8341,8385 8078,8494 8075,8088 Z M 7944,8143 L 7944,8143 Z M 8341,8385 L 8341,8385 Z"/>
        <path fill="none" stroke="rgb(38,53,115)" d="M 8075,8088 L 8341,8385 8078,8494 8075,8088 Z"/>
        <path fill="none" stroke="rgb(38,53,115)" d="M 7944,8143 L 7944,8143 Z"/>
        <path fill="none" stroke="rgb(38,53,115)" d="M 8341,8385 L 8341,8385 Z"/>
       </g>
      </g>
      <g class="com.sun.star.drawing.CustomShape">
       <g id="id23">
        <rect class="BoundingBox" stroke="none" fill="none" x="3391" y="6323" width="457" height="276"/>
        <path fill="rgb(38,53,115)" stroke="none" d="M 3793,6324 L 3392,6338 3500,6597 3793,6324 Z M 3846,6454 L 3846,6454 Z M 3392,6338 L 3392,6338 Z"/>
        <path fill="none" stroke="rgb(38,53,115)" d="M 3793,6324 L 3392,6338 3500,6597 3793,6324 Z"/>
        <path fill="none" stroke="rgb(38,53,115)" d="M 3846,6454 L 3846,6454 Z"/>
        <path fill="none" stroke="rgb(38,53,115)" d="M 3392,6338 L 3392,6338 Z"/>
       </g>
      </g>
      <g class="com.sun.star.drawing.CustomShape">
       <g id="id24">
        <rect class="BoundingBox" stroke="none" fill="none" x="4134" y="7388" width="474" height="367"/>
        <path fill="rgb(38,53,115)" stroke="none" d="M 4504,7389 L 4135,7549 4340,7753 4504,7389 Z M 4606,7491 L 4606,7491 Z M 4135,7549 L 4135,7549 Z"/>
        <path fill="none" stroke="rgb(38,53,115)" d="M 4504,7389 L 4135,7549 4340,7753 4504,7389 Z"/>
        <path fill="none" stroke="rgb(38,53,115)" d="M 4606,7491 L 4606,7491 Z"/>
        <path fill="none" stroke="rgb(38,53,115)" d="M 4135,7549 L 4135,7549 Z"/>
       </g>
      </g>
      <g class="com.sun.star.drawing.CustomShape">
       <g id="id25">
        <rect class="BoundingBox" stroke="none" fill="none" x="5298" y="8083" width="409" height="411"/>
        <path fill="rgb(38,53,115)" stroke="none" d="M 5574,8084 L 5299,8384 5561,8492 5574,8084 Z M 5705,8138 L 5705,8138 Z M 5299,8384 L 5299,8384 Z"/>
        <path fill="none" stroke="rgb(38,53,115)" d="M 5574,8084 L 5299,8384 5561,8492 5574,8084 Z"/>
        <path fill="none" stroke="rgb(38,53,115)" d="M 5705,8138 L 5705,8138 Z"/>
        <path fill="none" stroke="rgb(38,53,115)" d="M 5299,8384 L 5299,8384 Z"/>
       </g>
      </g>
      <g class="com.sun.star.drawing.CustomShape">
       <g id="id26">
        <rect class="BoundingBox" stroke="none" fill="none" x="3382" y="3530" width="463" height="284"/>
        <path fill="rgb(38,53,115)" stroke="none" d="M 3790,3812 L 3384,3793 3492,3531 3790,3812 Z M 3843,3682 L 3843,3682 Z M 3383,3792 L 3383,3792 Z"/>
        <path fill="none" stroke="rgb(38,53,115)" d="M 3790,3812 L 3384,3793 3492,3531 3790,3812 Z"/>
        <path fill="none" stroke="rgb(38,53,115)" d="M 3843,3682 L 3843,3682 Z"/>
        <path fill="none" stroke="rgb(38,53,115)" d="M 3383,3792 L 3383,3792 Z"/>
       </g>
      </g>
      <g class="com.sun.star.drawing.CustomShape">
       <g id="id27">
        <rect class="BoundingBox" stroke="none" fill="none" x="4123" y="2380" width="477" height="365"/>
        <path fill="rgb(38,53,115)" stroke="none" d="M 4496,2743 L 4124,2584 4327,2381 4496,2743 Z M 4598,2642 L 4598,2642 Z M 4124,2584 L 4124,2584 Z"/>
        <path fill="none" stroke="rgb(38,53,115)" d="M 4496,2743 L 4124,2584 4327,2381 4496,2743 Z"/>
        <path fill="none" stroke="rgb(38,53,115)" d="M 4598,2642 L 4598,2642 Z"/>
        <path fill="none" stroke="rgb(38,53,115)" d="M 4124,2584 L 4124,2584 Z"/>
       </g>
      </g>
      <g class="com.sun.star.drawing.CustomShape">
       <g id="id28">
        <rect class="BoundingBox" stroke="none" fill="none" x="5299" y="1647" width="410" height="413"/>
        <path fill="rgb(38,53,115)" stroke="none" d="M 5577,2058 L 5300,1757 5561,1648 5577,2058 Z M 5707,2004 L 5707,2004 Z M 5300,1757 L 5300,1757 Z"/>
        <path fill="none" stroke="rgb(38,53,115)" d="M 5577,2058 L 5300,1757 5561,1648 5577,2058 Z"/>
        <path fill="none" stroke="rgb(38,53,115)" d="M 5707,2004 L 5707,2004 Z"/>
        <path fill="none" stroke="rgb(38,53,115)" d="M 5300,1757 L 5300,1757 Z"/>
       </g>
      </g>
      <g class="com.sun.star.drawing.CustomShape">
       <g id="id29">
        <rect class="BoundingBox" stroke="none" fill="none" x="9805" y="3542" width="459" height="276"/>
        <path fill="rgb(38,53,115)" stroke="none" d="M 9861,3816 L 10262,3809 10152,3543 9861,3816 Z M 9806,3683 L 9806,3683 Z M 10262,3809 L 10262,3809 Z"/>
        <path fill="none" stroke="rgb(38,53,115)" d="M 9861,3816 L 10262,3809 10152,3543 9861,3816 Z"/>
        <path fill="none" stroke="rgb(38,53,115)" d="M 9806,3683 L 9806,3683 Z"/>
        <path fill="none" stroke="rgb(38,53,115)" d="M 10262,3809 L 10262,3809 Z"/>
       </g>
      </g>
      <g class="com.sun.star.drawing.CustomShape">
       <g id="id30">
        <rect class="BoundingBox" stroke="none" fill="none" x="9056" y="2371" width="471" height="371"/>
        <path fill="rgb(38,53,115)" stroke="none" d="M 9158,2740 L 9525,2576 9322,2372 9158,2740 Z M 9057,2638 L 9057,2638 Z M 9525,2576 L 9525,2576 Z"/>
        <path fill="none" stroke="rgb(38,53,115)" d="M 9158,2740 L 9525,2576 9322,2372 9158,2740 Z"/>
        <path fill="none" stroke="rgb(38,53,115)" d="M 9057,2638 L 9057,2638 Z"/>
        <path fill="none" stroke="rgb(38,53,115)" d="M 9525,2576 L 9525,2576 Z"/>
       </g>
      </g>
      <g class="com.sun.star.drawing.CustomShape">
       <g id="id31">
        <rect class="BoundingBox" stroke="none" fill="none" x="7943" y="1634" width="417" height="412"/>
        <path fill="rgb(38,53,115)" stroke="none" d="M 8078,2044 L 8358,1745 8091,1635 8078,2044 Z M 7944,1989 L 7944,1989 Z M 8358,1745 L 8358,1745 Z"/>
        <path fill="none" stroke="rgb(38,53,115)" d="M 8078,2044 L 8358,1745 8091,1635 8078,2044 Z"/>
        <path fill="none" stroke="rgb(38,53,115)" d="M 7944,1989 L 7944,1989 Z"/>
        <path fill="none" stroke="rgb(38,53,115)" d="M 8358,1745 L 8358,1745 Z"/>
       </g>
      </g>
      <g class="com.sun.star.drawing.CustomShape">
       <g id="id32">
        <rect class="BoundingBox" stroke="none" fill="none" x="6930" y="1550" width="354" height="357"/>
        <path fill="rgb(38,53,115)" stroke="none" d="M 7107,1551 L 6931,1905 7282,1905 7107,1551 Z M 7282,1551 L 7282,1551 Z M 6931,1905 L 6931,1905 Z"/>
        <path fill="none" stroke="rgb(38,53,115)" d="M 7107,1551 L 6931,1905 7282,1905 7107,1551 Z"/>
        <path fill="none" stroke="rgb(38,53,115)" d="M 7282,1551 L 7282,1551 Z"/>
        <path fill="none" stroke="rgb(38,53,115)" d="M 6931,1905 L 6931,1905 Z"/>
       </g>
      </g>
      <g class="com.sun.star.drawing.CustomShape">
       <g id="id33">
        <rect class="BoundingBox" stroke="none" fill="none" x="6371" y="1550" width="355" height="357"/>
        <path fill="rgb(38,53,115)" stroke="none" d="M 6549,1551 L 6373,1905 6724,1905 6549,1551 Z M 6724,1551 L 6724,1551 Z M 6372,1905 L 6372,1905 Z"/>
        <path fill="none" stroke="rgb(38,53,115)" d="M 6549,1551 L 6373,1905 6724,1905 6549,1551 Z"/>
        <path fill="none" stroke="rgb(38,53,115)" d="M 6724,1551 L 6724,1551 Z"/>
        <path fill="none" stroke="rgb(38,53,115)" d="M 6372,1905 L 6372,1905 Z"/>
       </g>
      </g>
     </g>
    </g>
   </g>
  </g>
 </g>
</svg>