<?xml version="1.0" encoding="UTF-8"?>
<!DOCTYPE svg PUBLIC "-//W3C//DTD SVG 1.1//EN" "http://www.w3.org/Graphics/SVG/1.1/DTD/svg11.dtd">
<svg version="1.2" width="77.02mm" height="76.96mm" viewBox="2992 1220 7702 7696" preserveAspectRatio="xMidYMid" fill-rule="evenodd" stroke-width="28.222" stroke-linejoin="round" xmlns="http://www.w3.org/2000/svg" xmlns:ooo="http://xml.openoffice.org/svg/export" xmlns:xlink="http://www.w3.org/1999/xlink" xmlns:presentation="http://sun.com/xmlns/staroffice/presentation" xmlns:smil="http://www.w3.org/2001/SMIL20/" xmlns:anim="urn:oasis:names:tc:opendocument:xmlns:animation:1.0" xml:space="preserve">
 <defs class="ClipPathGroup">
  <clipPath id="presentation_clip_path" clipPathUnits="userSpaceOnUse">
   <rect x="2992" y="1220" width="7702" height="7696"/>
  </clipPath>
  <clipPath id="presentation_clip_path_shrink" clipPathUnits="userSpaceOnUse">
   <rect x="2999" y="1227" width="7687" height="7681"/>
  </clipPath>
 </defs>
 <defs class="TextShapeIndex">
  <g ooo:slide="id1" ooo:id-list="id3 id4 id5 id6 id7 id8 id9 id10 id11 id12 id13 id14 id15 id16 id17 id18 id19 id20 id21 id22 id23 id24 id25 id26 id27 id28 id29 id30 id31 id32 id33"/>
 </defs>
 <defs class="EmbeddedBulletChars">
  <g id="bullet-char-template-57356" transform="scale(0.00048828125,-0.00048828125)">
   <path d="M 580,1141 L 1163,571 580,0 -4,571 580,1141 Z"/>
  </g>
  <g id="bullet-char-template-57354" transform="scale(0.00048828125,-0.00048828125)">
   <path d="M 8,1128 L 1137,1128 1137,0 8,0 8,1128 Z"/>
  </g>
  <g id="bullet-char-template-10146" transform="scale(0.00048828125,-0.00048828125)">
   <path d="M 174,0 L 602,739 174,1481 1456,739 174,0 Z M 1358,739 L 309,1346 659,739 1358,739 Z"/>
  </g>
  <g id="bullet-char-template-10132" transform="scale(0.00048828125,-0.00048828125)">
   <path d="M 2015,739 L 1276,0 717,0 1260,543 174,543 174,936 1260,936 717,1481 1274,1481 2015,739 Z"/>
  </g>
  <g id="bullet-char-template-10007" transform="scale(0.00048828125,-0.00048828125)">
   <path d="M 0,-2 C -7,14 -16,27 -25,37 L 356,567 C 262,823 215,952 215,954 215,979 228,992 255,992 264,992 276,990 289,987 310,991 331,999 354,1012 L 381,999 492,748 772,1049 836,1024 860,1049 C 881,1039 901,1025 922,1006 886,937 835,863 770,784 769,783 710,716 594,584 L 774,223 C 774,196 753,168 711,139 L 727,119 C 717,90 699,76 672,76 641,76 570,178 457,381 L 164,-76 C 142,-110 111,-127 72,-127 30,-127 9,-110 8,-76 1,-67 -2,-52 -2,-32 -2,-23 -1,-13 0,-2 Z"/>
  </g>
  <g id="bullet-char-template-10004" transform="scale(0.00048828125,-0.00048828125)">
   <path d="M 285,-33 C 182,-33 111,30 74,156 52,228 41,333 41,471 41,549 55,616 82,672 116,743 169,778 240,778 293,778 328,747 346,684 L 369,508 C 377,444 397,411 428,410 L 1163,1116 C 1174,1127 1196,1133 1229,1133 1271,1133 1292,1118 1292,1087 L 1292,965 C 1292,929 1282,901 1262,881 L 442,47 C 390,-6 338,-33 285,-33 Z"/>
  </g>
  <g id="bullet-char-template-9679" transform="scale(0.00048828125,-0.00048828125)">
   <path d="M 813,0 C 632,0 489,54 383,161 276,268 223,411 223,592 223,773 276,916 383,1023 489,1130 632,1184 813,1184 992,1184 1136,1130 1245,1023 1353,916 1407,772 1407,592 1407,412 1353,268 1245,161 1136,54 992,0 813,0 Z"/>
  </g>
  <g id="bullet-char-template-8226" transform="scale(0.00048828125,-0.00048828125)">
   <path d="M 346,457 C 273,457 209,483 155,535 101,586 74,649 74,723 74,796 101,859 155,911 209,963 273,989 346,989 419,989 480,963 531,910 582,859 608,796 608,723 608,648 583,586 532,535 482,483 420,457 346,457 Z"/>
  </g>
  <g id="bullet-char-template-8211" transform="scale(0.00048828125,-0.00048828125)">
   <path d="M -4,459 L 1135,459 1135,606 -4,606 -4,459 Z"/>
  </g>
  <g id="bullet-char-template-61548" transform="scale(0.00048828125,-0.00048828125)">
   <path d="M 173,740 C 173,903 231,1043 346,1159 462,1274 601,1332 765,1332 928,1332 1067,1274 1183,1159 1299,1043 1357,903 1357,740 1357,577 1299,437 1183,322 1067,206 928,148 765,148 601,148 462,206 346,322 231,437 173,577 173,740 Z"/>
  </g>
 </defs>
 <defs class="TextEmbeddedBitmaps"/>
 <g class="SlideGroup">
  <g>
   <g id="container-id1">
    <g id="id1" class="Slide" clip-path="url(#presentation_clip_path)">
     <g class="Page">
      <g class="com.sun.star.drawing.CustomShape">
       <g id="id3">
        <rect class="BoundingBox" stroke="none" fill="none" x="9796" y="6325" width="457" height="278"/>
        <path fill="rgb(38,53,115)" stroke="none" d="M 9851,6326 L 10251,6340 10142,6601 9851,6326 Z M 9797,6456 L 9797,6456 Z M 10251,6340 L 10251,6340 Z"/>
        <path fill="none" stroke="rgb(38,53,115)" d="M 9851,6326 L 10251,6340 10142,6601 9851,6326 Z"/>
        <path fill="none" stroke="rgb(38,53,115)" d="M 9797,6456 L 9797,6456 Z"/>
        <path fill="none" stroke="rgb(38,53,115)" d="M 10251,6340 L 10251,6340 Z"/>
       </g>
      </g>
      <g class="com.sun.star.drawing.CustomShape">
       <g id="id4">
        <rect class="BoundingBox" stroke="none" fill="none" x="9041" y="7394" width="478" height="367"/>
        <path fill="rgb(38,53,115)" stroke="none" d="M 9144,7395 L 9517,7556 9313,7759 9144,7395 Z M 9042,7497 L 9042,7497 Z M 9517,7556 L 9517,7556 Z"/>
        <path fill="none" stroke="rgb(38,53,115)" d="M 9144,7395 L 9517,7556 9313,7759 9144,7395 Z"/>
        <path fill="none" stroke="rgb(38,53,115)" d="M 9042,7497 L 9042,7497 Z"/>
        <path fill="none" stroke="rgb(38,53,115)" d="M 9517,7556 L 9517,7556 Z"/>
       </g>
      </g>
      <g class="com.sun.star.drawing.CustomShape">
       <g id="id5">
        <rect class="BoundingBox" stroke="none" fill="none" x="3774" y="2015" width="6117" height="6115"/>
        <path fill="none" stroke="rgb(38,53,115)" stroke-width="18" stroke-linejoin="round" d="M 6831,2024 C 8559,2024 9880,3343 9880,5071 9880,6799 8559,8119 6831,8119 5103,8119 3783,6799 3783,5071 3783,3343 5103,2024 6831,2024 Z"/>
       </g>
      </g>
      <g class="com.sun.star.drawing.CustomShape">
       <g id="id6">
        <rect class="BoundingBox" stroke="none" fill="none" x="3882" y="2131" width="5879" height="5879"/>
        <path fill="none" stroke="rgb(38,53,115)" stroke-width="18" stroke-linejoin="round" d="M 6820,2140 C 8481,2140 9750,3408 9750,5069 9750,6730 8481,7999 6820,7999 5159,7999 3891,6730 3891,5069 3891,3408 5159,2140 6820,2140 Z"/>
       </g>
      </g>
      <g class="com.sun.star.drawing.CustomShape">
       <g id="id7">
        <rect class="BoundingBox" stroke="none" fill="none" x="6535" y="1412" width="586" height="593"/>
        <path fill="rgb(38,53,115)" stroke="none" d="M 6828,2003 L 6536,1413 7119,1413 6828,2003 Z M 7119,2003 L 7119,2003 Z M 6536,1413 L 6536,1413 Z"/>
        <path fill="none" stroke="rgb(38,53,115)" d="M 6828,2003 L 6536,1413 7119,1413 6828,2003 Z"/>
        <path fill="none" stroke="rgb(38,53,115)" d="M 7119,2003 L 7119,2003 Z"/>
        <path fill="none" stroke="rgb(38,53,115)" d="M 6536,1413 L 6536,1413 Z"/>
       </g>
      </g>
      <g class="com.sun.star.drawing.CustomShape">
       <g id="id8">
        <rect class="BoundingBox" stroke="none" fill="none" x="3179" y="4778" width="589" height="588"/>
        <path fill="rgb(38,53,115)" stroke="none" d="M 3766,5071 L 3180,5364 3180,4779 3766,5071 Z M 3766,4779 L 3766,4779 Z M 3180,5364 L 3180,5364 Z"/>
        <path fill="none" stroke="rgb(38,53,115)" d="M 3766,5071 L 3180,5364 3180,4779 3766,5071 Z"/>
        <path fill="none" stroke="rgb(38,53,115)" d="M 3766,4779 L 3766,4779 Z"/>
        <path fill="none" stroke="rgb(38,53,115)" d="M 3180,5364 L 3180,5364 Z"/>
       </g>
      </g>
      <g class="com.sun.star.drawing.CustomShape">
       <g id="id9">
        <rect class="BoundingBox" stroke="none" fill="none" x="9897" y="4777" width="588" height="588"/>
        <path fill="rgb(38,53,115)" stroke="none" d="M 9898,5071 L 10483,4778 10483,5363 9898,5071 Z M 9898,5363 L 9898,5363 Z M 10483,4778 L 10483,4778 Z"/>
        <path fill="none" stroke="rgb(38,53,115)" d="M 9898,5071 L 10483,4778 10483,5363 9898,5071 Z"/>
        <path fill="none" stroke="rgb(38,53,115)" d="M 9898,5363 L 9898,5363 Z"/>
        <path fill="none" stroke="rgb(38,53,115)" d="M 10483,4778 L 10483,4778 Z"/>
       </g>
      </g>
      <g class="com.sun.star.drawing.CustomShape">
       <g id="id10">
        <rect class="BoundingBox" stroke="none" fill="none" x="5381" y="3995" width="2183" height="1807"/>
        <path fill="rgb(145,145,145)" stroke="none" d="M 5744,3996 L 7562,5077 6839,5800 5744,3996 Z M 5382,4357 L 5382,4357 Z M 7562,5077 L 7562,5077 Z"/>
        <path fill="none" stroke="rgb(145,145,145)" d="M 5744,3996 L 7562,5077 6839,5800 5744,3996 Z"/>
        <path fill="none" stroke="rgb(145,145,145)" d="M 5382,4357 L 5382,4357 Z"/>
        <path fill="none" stroke="rgb(145,145,145)" d="M 7562,5077 L 7562,5077 Z"/>
       </g>
      </g>
      <g class="com.sun.star.drawing.CustomShape">
       <g id="id11">
        <rect class="BoundingBox" stroke="none" fill="none" x="6100" y="4343" width="2168" height="1807"/>
        <path fill="rgb(145,145,145)" stroke="none" d="M 7903,6148 L 6101,5070 6827,4344 7903,6148 Z M 8266,5785 L 8266,5785 Z M 6101,5070 L 6101,5070 Z"/>
        <path fill="none" stroke="rgb(145,145,145)" d="M 7903,6148 L 6101,5070 6827,4344 7903,6148 Z"/>
        <path fill="none" stroke="rgb(145,145,145)" d="M 8266,5785 L 8266,5785 Z"/>
        <path fill="none" stroke="rgb(145,145,145)" d="M 6101,5070 L 6101,5070 Z"/>
       </g>
      </g>
      <g class="com.sun.star.drawing.CustomShape">
       <g id="id12">
        <rect class="BoundingBox" stroke="none" fill="none" x="6080" y="3996" width="2152" height="1821"/>
        <path fill="rgb(145,145,145)" stroke="none" d="M 7871,3997 L 6082,5094 6802,5815 7871,3997 Z M 8230,4357 L 8230,4357 Z M 6081,5095 L 6081,5095 Z"/>
        <path fill="none" stroke="rgb(145,145,145)" d="M 7871,3997 L 6082,5094 6802,5815 7871,3997 Z"/>
        <path fill="none" stroke="rgb(145,145,145)" d="M 8230,4357 L 8230,4357 Z"/>
        <path fill="none" stroke="rgb(145,145,145)" d="M 6081,5095 L 6081,5095 Z"/>
       </g>
      </g>
      <g class="com.sun.star.drawing.CustomShape">
       <g id="id13">
        <rect class="BoundingBox" stroke="none" fill="none" x="6317" y="5064" width="1016" height="2041"/>
        <path fill="rgb(145,145,145)" stroke="none" d="M 6825,7103 L 6318,5065 7331,5065 6825,7103 Z M 7331,7103 L 7331,7103 Z M 6318,5065 L 6318,5065 Z"/>
        <path fill="none" stroke="rgb(145,145,145)" d="M 6825,7103 L 6318,5065 7331,5065 6825,7103 Z"/>
        <path fill="none" stroke="rgb(145,145,145)" d="M 7331,7103 L 7331,7103 Z"/>
        <path fill="none" stroke="rgb(145,145,145)" d="M 6318,5065 L 6318,5065 Z"/>
       </g>
      </g>
      <g class="com.sun.star.drawing.CustomShape">
       <g id="id14">
        <rect class="BoundingBox" stroke="none" fill="none" x="6317" y="3032" width="1016" height="2035"/>
        <path fill="rgb(145,145,145)" stroke="none" d="M 6825,3033 L 6318,5065 7331,5065 6825,3033 Z M 7331,3033 L 7331,3033 Z M 6318,5065 L 6318,5065 Z"/>
        <path fill="none" stroke="rgb(145,145,145)" d="M 6825,3033 L 6318,5065 7331,5065 6825,3033 Z"/>
        <path fill="none" stroke="rgb(145,145,145)" d="M 7331,3033 L 7331,3033 Z"/>
        <path fill="none" stroke="rgb(145,145,145)" d="M 6318,5065 L 6318,5065 Z"/>
       </g>
      </g>
      <g class="com.sun.star.drawing.CustomShape">
       <g id="id15">
        <rect class="BoundingBox" stroke="none" fill="none" x="6825" y="4565" width="2036" height="1013"/>
        <path fill="rgb(145,145,145)" stroke="none" d="M 8859,5071 L 6826,4566 6826,5576 8859,5071 Z M 8859,5576 L 8859,5576 Z M 6826,4566 L 6826,4566 Z"/>
        <path fill="none" stroke="rgb(145,145,145)" d="M 8859,5071 L 6826,4566 6826,5576 8859,5071 Z"/>
        <path fill="none" stroke="rgb(145,145,145)" d="M 8859,5576 L 8859,5576 Z"/>
        <path fill="none" stroke="rgb(145,145,145)" d="M 6826,4566 L 6826,4566 Z"/>
       </g>
      </g>
      <g class="com.sun.star.drawing.CustomShape">
       <g id="id16">
        <rect class="BoundingBox" stroke="none" fill="none" x="4788" y="4561" width="2041" height="1017"/>
        <path fill="rgb(145,145,145)" stroke="none" d="M 4789,5070 L 6827,4563 6827,5576 4789,5070 Z M 4789,5576 L 4789,5576 Z M 6827,4562 L 6827,4562 Z"/>
        <path fill="none" stroke="rgb(145,145,145)" d="M 4789,5070 L 6827,4563 6827,5576 4789,5070 Z"/>
        <path fill="none" stroke="rgb(145,145,145)" d="M 4789,5576 L 4789,5576 Z"/>
        <path fill="none" stroke="rgb(145,145,145)" d="M 6827,4562 L 6827,4562 Z"/>
       </g>
      </g>
      <g class="com.sun.star.drawing.CustomShape">
       <g id="id17">
        <rect class="BoundingBox" stroke="none" fill="none" x="5381" y="4351" width="2157" height="1810"/>
        <path fill="rgb(145,145,145)" stroke="none" d="M 5744,6159 L 7536,5074 6813,4352 5744,6159 Z M 5382,5798 L 5382,5798 Z M 7536,5074 L 7536,5074 Z"/>
        <path fill="none" stroke="rgb(145,145,145)" d="M 5744,6159 L 7536,5074 6813,4352 5744,6159 Z"/>
        <path fill="none" stroke="rgb(145,145,145)" d="M 5382,5798 L 5382,5798 Z"/>
        <path fill="none" stroke="rgb(145,145,145)" d="M 7536,5074 L 7536,5074 Z"/>
       </g>
      </g>
      <g class="com.sun.star.drawing.CustomShape">
       <g id="id18">
        <rect class="BoundingBox" stroke="none" fill="none" x="2991" y="1219" width="7704" height="7698"/>
        <path fill="none" stroke="rgb(38,53,115)" stroke-width="81" stroke-linejoin="round" d="M 6842,1260 C 9002,1260 10652,2909 10652,5067 10652,7225 9002,8874 6842,8874 4682,8874 3032,7225 3032,5067 3032,2909 4682,1260 6842,1260 Z"/>
       </g>
      </g>
      <g class="Group">
       <g class="com.sun.star.drawing.CustomShape">
        <g id="id19">
         <rect class="BoundingBox" stroke="none" fill="none" x="4179" y="4798" width="2775" height="1791"/>
         <path fill="rgb(193,49,49)" stroke="none" d="M 4180,6322 L 6698,4799 6952,5331 4180,6322 Z M 4306,6587 L 4306,6587 Z M 6698,4799 L 6698,4799 Z"/>
         <path fill="none" stroke="rgb(193,49,49)" d="M 4180,6322 L 6698,4799 6952,5331 4180,6322 Z"/>
         <path fill="none" stroke="rgb(193,49,49)" d="M 4306,6587 L 4306,6587 Z"/>
         <path fill="none" stroke="rgb(193,49,49)" d="M 6698,4799 L 6698,4799 Z"/>
        </g>
       </g>
       <g class="com.sun.star.drawing.CustomShape">
        <g id="id20">
         <rect class="BoundingBox" stroke="none" fill="none" x="6689" y="3546" width="2781" height="1783"/>
         <path fill="rgb(114,159,207)" stroke="none" d="M 9468,3813 L 6945,5327 6690,4793 9468,3813 Z M 9341,3547 L 9341,3547 Z M 6945,5327 L 6945,5327 Z"/>
         <path fill="none" stroke="rgb(114,159,207)" d="M 9468,3813 L 6945,5327 6690,4793 9468,3813 Z"/>
         <path fill="none" stroke="rgb(114,159,207)" d="M 9341,3547 L 9341,3547 Z"/>
         <path fill="none" stroke="rgb(114,159,207)" d="M 6945,5327 L 6945,5327 Z"/>
        </g>
       </g>
      </g>
      <g class="com.sun.star.drawing.CustomShape">
       <g id="id21">
        <rect class="BoundingBox" stroke="none" fill="none" x="6536" y="8130" width="586" height="592"/>
        <path fill="rgb(38,53,115)" stroke="none" d="M 6828,8131 L 7120,8720 6537,8720 6828,8131 Z M 6537,8131 L 6537,8131 Z M 7120,8720 L 7120,8720 Z"/>
        <path fill="none" stroke="rgb(38,53,115)" d="M 6828,8131 L 7120,8720 6537,8720 6828,8131 Z"/>
        <path fill="none" stroke="rgb(38,53,115)" d="M 6537,8131 L 6537,8131 Z"/>
        <path fill="none" stroke="rgb(38,53,115)" d="M 7120,8720 L 7120,8720 Z"/>
       </g>
      </g>
      <g class="com.sun.star.drawing.CustomShape">
       <g id="id22">
        <rect class="BoundingBox" stroke="none" fill="none" x="7941" y="8090" width="400" height="409"/>
        <path fill="rgb(38,53,115)" stroke="none" d="M 8073,8091 L 8339,8388 8076,8497 8073,8091 Z M 7942,8146 L 7942,8146 Z M 8339,8388 L 8339,8388 Z"/>
        <path fill="none" stroke="rgb(38,53,115)" d="M 8073,8091 L 8339,8388 8076,8497 8073,8091 Z"/>
        <path fill="none" stroke="rgb(38,53,115)" d="M 7942,8146 L 7942,8146 Z"/>
        <path fill="none" stroke="rgb(38,53,115)" d="M 8339,8388 L 8339,8388 Z"/>
       </g>
      </g>
      <g class="com.sun.star.drawing.CustomShape">
       <g id="id23">
        <rect class="BoundingBox" stroke="none" fill="none" x="3390" y="6325" width="457" height="276"/>
        <path fill="rgb(38,53,115)" stroke="none" d="M 3792,6326 L 3391,6340 3499,6599 3792,6326 Z M 3845,6456 L 3845,6456 Z M 3391,6340 L 3391,6340 Z"/>
        <path fill="none" stroke="rgb(38,53,115)" d="M 3792,6326 L 3391,6340 3499,6599 3792,6326 Z"/>
        <path fill="none" stroke="rgb(38,53,115)" d="M 3845,6456 L 3845,6456 Z"/>
        <path fill="none" stroke="rgb(38,53,115)" d="M 3391,6340 L 3391,6340 Z"/>
       </g>
      </g>
      <g class="com.sun.star.drawing.CustomShape">
       <g id="id24">
        <rect class="BoundingBox" stroke="none" fill="none" x="4133" y="7388" width="469" height="372"/>
        <path fill="rgb(38,53,115)" stroke="none" d="M 4498,7389 L 4134,7554 4338,7758 4498,7389 Z M 4600,7491 L 4600,7491 Z M 4134,7554 L 4134,7554 Z"/>
        <path fill="none" stroke="rgb(38,53,115)" d="M 4498,7389 L 4134,7554 4338,7758 4498,7389 Z"/>
        <path fill="none" stroke="rgb(38,53,115)" d="M 4600,7491 L 4600,7491 Z"/>
        <path fill="none" stroke="rgb(38,53,115)" d="M 4134,7554 L 4134,7554 Z"/>
       </g>
      </g>
      <g class="com.sun.star.drawing.CustomShape">
       <g id="id25">
        <rect class="BoundingBox" stroke="none" fill="none" x="5295" y="8087" width="414" height="409"/>
        <path fill="rgb(38,53,115)" stroke="none" d="M 5576,8088 L 5296,8386 5558,8494 5576,8088 Z M 5707,8142 L 5707,8142 Z M 5296,8386 L 5296,8386 Z"/>
        <path fill="none" stroke="rgb(38,53,115)" d="M 5576,8088 L 5296,8386 5558,8494 5576,8088 Z"/>
        <path fill="none" stroke="rgb(38,53,115)" d="M 5707,8142 L 5707,8142 Z"/>
        <path fill="none" stroke="rgb(38,53,115)" d="M 5296,8386 L 5296,8386 Z"/>
       </g>
      </g>
      <g class="com.sun.star.drawing.CustomShape">
       <g id="id26">
        <rect class="BoundingBox" stroke="none" fill="none" x="3380" y="3530" width="464" height="283"/>
        <path fill="rgb(38,53,115)" stroke="none" d="M 3788,3811 L 3382,3792 3490,3531 3788,3811 Z M 3842,3681 L 3842,3681 Z M 3381,3792 L 3381,3792 Z"/>
        <path fill="none" stroke="rgb(38,53,115)" d="M 3788,3811 L 3382,3792 3490,3531 3788,3811 Z"/>
        <path fill="none" stroke="rgb(38,53,115)" d="M 3842,3681 L 3842,3681 Z"/>
        <path fill="none" stroke="rgb(38,53,115)" d="M 3381,3792 L 3381,3792 Z"/>
       </g>
      </g>
      <g class="com.sun.star.drawing.CustomShape">
       <g id="id27">
        <rect class="BoundingBox" stroke="none" fill="none" x="4121" y="2378" width="477" height="365"/>
        <path fill="rgb(38,53,115)" stroke="none" d="M 4494,2741 L 4122,2582 4325,2379 4494,2741 Z M 4596,2640 L 4596,2640 Z M 4122,2582 L 4122,2582 Z"/>
        <path fill="none" stroke="rgb(38,53,115)" d="M 4494,2741 L 4122,2582 4325,2379 4494,2741 Z"/>
        <path fill="none" stroke="rgb(38,53,115)" d="M 4596,2640 L 4596,2640 Z"/>
        <path fill="none" stroke="rgb(38,53,115)" d="M 4122,2582 L 4122,2582 Z"/>
       </g>
      </g>
      <g class="com.sun.star.drawing.CustomShape">
       <g id="id28">
        <rect class="BoundingBox" stroke="none" fill="none" x="5297" y="1648" width="412" height="411"/>
        <path fill="rgb(38,53,115)" stroke="none" d="M 5576,2057 L 5298,1757 5560,1649 5576,2057 Z M 5707,2003 L 5707,2003 Z M 5298,1757 L 5298,1757 Z"/>
        <path fill="none" stroke="rgb(38,53,115)" d="M 5576,2057 L 5298,1757 5560,1649 5576,2057 Z"/>
        <path fill="none" stroke="rgb(38,53,115)" d="M 5707,2003 L 5707,2003 Z"/>
        <path fill="none" stroke="rgb(38,53,115)" d="M 5298,1757 L 5298,1757 Z"/>
       </g>
      </g>
      <g class="com.sun.star.drawing.CustomShape">
       <g id="id29">
        <rect class="BoundingBox" stroke="none" fill="none" x="9804" y="3539" width="457" height="281"/>
        <path fill="rgb(38,53,115)" stroke="none" d="M 9861,3818 L 10259,3807 10149,3540 9861,3818 Z M 9805,3685 L 9805,3685 Z M 10259,3807 L 10259,3807 Z"/>
        <path fill="none" stroke="rgb(38,53,115)" d="M 9861,3818 L 10259,3807 10149,3540 9861,3818 Z"/>
        <path fill="none" stroke="rgb(38,53,115)" d="M 9805,3685 L 9805,3685 Z"/>
        <path fill="none" stroke="rgb(38,53,115)" d="M 10259,3807 L 10259,3807 Z"/>
       </g>
      </g>
      <g class="com.sun.star.drawing.CustomShape">
       <g id="id30">
        <rect class="BoundingBox" stroke="none" fill="none" x="9056" y="2369" width="473" height="370"/>
        <path fill="rgb(38,53,115)" stroke="none" d="M 9159,2737 L 9527,2573 9323,2370 9159,2737 Z M 9057,2635 L 9057,2635 Z M 9527,2573 L 9527,2573 Z"/>
        <path fill="none" stroke="rgb(38,53,115)" d="M 9159,2737 L 9527,2573 9323,2370 9159,2737 Z"/>
        <path fill="none" stroke="rgb(38,53,115)" d="M 9057,2635 L 9057,2635 Z"/>
        <path fill="none" stroke="rgb(38,53,115)" d="M 9527,2573 L 9527,2573 Z"/>
       </g>
      </g>
      <g class="com.sun.star.drawing.CustomShape">
       <g id="id31">
        <rect class="BoundingBox" stroke="none" fill="none" x="7942" y="1635" width="417" height="412"/>
        <path fill="rgb(38,53,115)" stroke="none" d="M 8077,2045 L 8357,1746 8090,1636 8077,2045 Z M 7943,1990 L 7943,1990 Z M 8357,1746 L 8357,1746 Z"/>
        <path fill="none" stroke="rgb(38,53,115)" d="M 8077,2045 L 8357,1746 8090,1636 8077,2045 Z"/>
        <path fill="none" stroke="rgb(38,53,115)" d="M 7943,1990 L 7943,1990 Z"/>
        <path fill="none" stroke="rgb(38,53,115)" d="M 8357,1746 L 8357,1746 Z"/>
       </g>
      </g>
      <g class="com.sun.star.drawing.CustomShape">
       <g id="id32">
        <rect class="BoundingBox" stroke="none" fill="none" x="7030" y="1548" width="354" height="357"/>
        <path fill="rgb(38,53,115)" stroke="none" d="M 7207,1549 L 7031,1903 7382,1903 7207,1549 Z M 7382,1549 L 7382,1549 Z M 7031,1903 L 7031,1903 Z"/>
        <path fill="none" stroke="rgb(38,53,115)" d="M 7207,1549 L 7031,1903 7382,1903 7207,1549 Z"/>
        <path fill="none" stroke="rgb(38,53,115)" d="M 7382,1549 L 7382,1549 Z"/>
        <path fill="none" stroke="rgb(38,53,115)" d="M 7031,1903 L 7031,1903 Z"/>
       </g>
      </g>
      <g class="com.sun.star.drawing.CustomShape">
       <g id="id33">
        <rect class="BoundingBox" stroke="none" fill="none" x="6271" y="1548" width="355" height="357"/>
        <path fill="rgb(38,53,115)" stroke="none" d="M 6449,1549 L 6273,1903 6624,1903 6449,1549 Z M 6624,1549 L 6624,1549 Z M 6272,1903 L 6272,1903 Z"/>
        <path fill="none" stroke="rgb(38,53,115)" d="M 6449,1549 L 6273,1903 6624,1903 6449,1549 Z"/>
        <path fill="none" stroke="rgb(38,53,115)" d="M 6624,1549 L 6624,1549 Z"/>
        <path fill="none" stroke="rgb(38,53,115)" d="M 6272,1903 L 6272,1903 Z"/>
       </g>
      </g>
     </g>
    </g>
   </g>
  </g>
 </g>
</svg>