<?xml version="1.0" encoding="UTF-8"?>
<!DOCTYPE svg PUBLIC "-//W3C//DTD SVG 1.1//EN" "http://www.w3.org/Graphics/SVG/1.1/DTD/svg11.dtd">
<svg version="1.2" width="78.74mm" height="78.74mm" viewBox="0 0 7874 7874" preserveAspectRatio="xMidYMid" fill-rule="evenodd" stroke-width="28.222" stroke-linejoin="round" xmlns="http://www.w3.org/2000/svg" xmlns:ooo="http://xml.openoffice.org/svg/export" xmlns:xlink="http://www.w3.org/1999/xlink" xmlns:presentation="http://sun.com/xmlns/staroffice/presentation" xmlns:smil="http://www.w3.org/2001/SMIL20/" xmlns:anim="urn:oasis:names:tc:opendocument:xmlns:animation:1.0" xml:space="preserve">
 <defs class="ClipPathGroup">
  <clipPath id="presentation_clip_path" clipPathUnits="userSpaceOnUse">
   <rect x="0" y="0" width="7874" height="7874"/>
  </clipPath>
  <clipPath id="presentation_clip_path_shrink" clipPathUnits="userSpaceOnUse">
   <rect x="7" y="7" width="7859" height="7859"/>
  </clipPath>
 </defs>
 <defs class="TextShapeIndex">
  <g ooo:slide="id1" ooo:id-list="id3 id4 id5 id6 id7 id8 id9 id10 id11 id12 id13 id14 id15 id16 id17 id18 id19 id20 id21 id22 id23 id24 id25 id26 id27 id28 id29 id30 id31 id32 id33"/>
 </defs>
 <defs class="EmbeddedBulletChars">
  <g id="bullet-char-template-57356" transform="scale(0.00048828125,-0.00048828125)">
   <path d="M 580,1141 L 1163,571 580,0 -4,571 580,1141 Z"/>
  </g>
  <g id="bullet-char-template-57354" transform="scale(0.00048828125,-0.00048828125)">
   <path d="M 8,1128 L 1137,1128 1137,0 8,0 8,1128 Z"/>
  </g>
  <g id="bullet-char-template-10146" transform="scale(0.00048828125,-0.00048828125)">
   <path d="M 174,0 L 602,739 174,1481 1456,739 174,0 Z M 1358,739 L 309,1346 659,739 1358,739 Z"/>
  </g>
  <g id="bullet-char-template-10132" transform="scale(0.00048828125,-0.00048828125)">
   <path d="M 2015,739 L 1276,0 717,0 1260,543 174,543 174,936 1260,936 717,1481 1274,1481 2015,739 Z"/>
  </g>
  <g id="bullet-char-template-10007" transform="scale(0.00048828125,-0.00048828125)">
   <path d="M 0,-2 C -7,14 -16,27 -25,37 L 356,567 C 262,823 215,952 215,954 215,979 228,992 255,992 264,992 276,990 289,987 310,991 331,999 354,1012 L 381,999 492,748 772,1049 836,1024 860,1049 C 881,1039 901,1025 922,1006 886,937 835,863 770,784 769,783 710,716 594,584 L 774,223 C 774,196 753,168 711,139 L 727,119 C 717,90 699,76 672,76 641,76 570,178 457,381 L 164,-76 C 142,-110 111,-127 72,-127 30,-127 9,-110 8,-76 1,-67 -2,-52 -2,-32 -2,-23 -1,-13 0,-2 Z"/>
  </g>
  <g id="bullet-char-template-10004" transform="scale(0.00048828125,-0.00048828125)">
   <path d="M 285,-33 C 182,-33 111,30 74,156 52,228 41,333 41,471 41,549 55,616 82,672 116,743 169,778 240,778 293,778 328,747 346,684 L 369,508 C 377,444 397,411 428,410 L 1163,1116 C 1174,1127 1196,1133 1229,1133 1271,1133 1292,1118 1292,1087 L 1292,965 C 1292,929 1282,901 1262,881 L 442,47 C 390,-6 338,-33 285,-33 Z"/>
  </g>
  <g id="bullet-char-template-9679" transform="scale(0.00048828125,-0.00048828125)">
   <path d="M 813,0 C 632,0 489,54 383,161 276,268 223,411 223,592 223,773 276,916 383,1023 489,1130 632,1184 813,1184 992,1184 1136,1130 1245,1023 1353,916 1407,772 1407,592 1407,412 1353,268 1245,161 1136,54 992,0 813,0 Z"/>
  </g>
  <g id="bullet-char-template-8226" transform="scale(0.00048828125,-0.00048828125)">
   <path d="M 346,457 C 273,457 209,483 155,535 101,586 74,649 74,723 74,796 101,859 155,911 209,963 273,989 346,989 419,989 480,963 531,910 582,859 608,796 608,723 608,648 583,586 532,535 482,483 420,457 346,457 Z"/>
  </g>
  <g id="bullet-char-template-8211" transform="scale(0.00048828125,-0.00048828125)">
   <path d="M -4,459 L 1135,459 1135,606 -4,606 -4,459 Z"/>
  </g>
  <g id="bullet-char-template-61548" transform="scale(0.00048828125,-0.00048828125)">
   <path d="M 173,740 C 173,903 231,1043 346,1159 462,1274 601,1332 765,1332 928,1332 1067,1274 1183,1159 1299,1043 1357,903 1357,740 1357,577 1299,437 1183,322 1067,206 928,148 765,148 601,148 462,206 346,322 231,437 173,577 173,740 Z"/>
  </g>
 </defs>
 <g>
  <g id="id2" class="Master_Slide">
   <g id="bg-id2" class="Background"/>
   <g id="bo-id2" class="BackgroundObjects"/>
  </g>
 </g>
 <g class="SlideGroup">
  <g>
   <g id="container-id1">
    <g id="id1" class="Slide" clip-path="url(#presentation_clip_path)">
     <g class="Page">
      <g class="Group">
       <g class="Group">
        <g class="com.sun.star.drawing.CustomShape">
         <g id="id3">
          <rect class="BoundingBox" stroke="none" fill="none" x="6954" y="5192" width="403" height="278"/>
          <path fill="rgb(38,53,115)" stroke="none" d="M 6955,5193 L 7355,5207 7246,5468 6955,5193 Z"/>
          <path fill="none" stroke="rgb(38,53,115)" d="M 6955,5193 L 7355,5207 7246,5468 6955,5193 Z"/>
         </g>
        </g>
        <g class="com.sun.star.drawing.CustomShape">
         <g id="id4">
          <rect class="BoundingBox" stroke="none" fill="none" x="6247" y="6261" width="376" height="367"/>
          <path fill="rgb(38,53,115)" stroke="none" d="M 6248,6262 L 6621,6423 6417,6626 6248,6262 Z"/>
          <path fill="none" stroke="rgb(38,53,115)" d="M 6248,6262 L 6621,6423 6417,6626 6248,6262 Z"/>
         </g>
        </g>
        <g class="com.sun.star.drawing.CustomShape">
         <g id="id5">
          <rect class="BoundingBox" stroke="none" fill="none" x="878" y="882" width="6117" height="6115"/>
          <path fill="none" stroke="rgb(38,53,115)" stroke-width="18" stroke-linejoin="round" d="M 6985,3939 C 6985,4474 6844,5000 6577,5463 6309,5926 5924,6311 5461,6579 4997,6846 4471,6987 3936,6987 3401,6987 2875,6846 2412,6579 1948,6311 1563,5926 1295,5463 1028,5000 887,4474 887,3939 887,3404 1028,2878 1295,2415 1563,1952 1948,1567 2411,1299 2875,1032 3401,891 3936,891 4471,891 4997,1032 5460,1299 5924,1567 6309,1952 6577,2415 6844,2878 6985,3404 6985,3939 L 6985,3939 Z"/>
         </g>
        </g>
        <g class="com.sun.star.drawing.CustomShape">
         <g id="id6">
          <rect class="BoundingBox" stroke="none" fill="none" x="986" y="998" width="5879" height="5879"/>
          <path fill="none" stroke="rgb(38,53,115)" stroke-width="18" stroke-linejoin="round" d="M 6855,3937 C 6855,4451 6720,4957 6462,5402 6205,5847 5835,6217 5390,6474 4945,6732 4439,6867 3925,6867 3411,6867 2905,6732 2460,6474 2015,6217 1645,5847 1388,5402 1130,4957 995,4451 995,3937 995,3423 1130,2917 1388,2472 1645,2027 2015,1657 2460,1400 2905,1142 3411,1007 3925,1007 4439,1007 4945,1142 5390,1400 5835,1657 6205,2027 6462,2472 6720,2917 6855,3423 6855,3937 L 6855,3937 Z"/>
         </g>
        </g>
        <g class="com.sun.star.drawing.CustomShape">
         <g id="id7">
          <rect class="BoundingBox" stroke="none" fill="none" x="3639" y="279" width="586" height="593"/>
          <path fill="rgb(38,53,115)" stroke="none" d="M 3932,870 L 3640,280 4223,280 3932,870 Z"/>
          <path fill="none" stroke="rgb(38,53,115)" d="M 3932,870 L 3640,280 4223,280 3932,870 Z"/>
         </g>
        </g>
        <g class="com.sun.star.drawing.CustomShape">
         <g id="id8">
          <rect class="BoundingBox" stroke="none" fill="none" x="280" y="3645" width="589" height="588"/>
          <path fill="rgb(38,53,115)" stroke="none" d="M 867,3938 L 281,4231 281,3646 867,3938 Z"/>
          <path fill="none" stroke="rgb(38,53,115)" d="M 867,3938 L 281,4231 281,3646 867,3938 Z"/>
         </g>
        </g>
        <g class="com.sun.star.drawing.CustomShape">
         <g id="id9">
          <rect class="BoundingBox" stroke="none" fill="none" x="7004" y="3644" width="588" height="588"/>
          <path fill="rgb(38,53,115)" stroke="none" d="M 7005,3938 L 7590,3645 7590,4230 7005,3938 Z"/>
          <path fill="none" stroke="rgb(38,53,115)" d="M 7005,3938 L 7590,3645 7590,4230 7005,3938 Z"/>
         </g>
        </g>
        <g class="com.sun.star.drawing.CustomShape">
         <g id="id10">
          <rect class="BoundingBox" stroke="none" fill="none" x="2847" y="2862" width="1821" height="1807"/>
          <path fill="rgb(145,145,145)" stroke="none" d="M 2848,2863 L 4666,3944 3943,4667 2848,2863 Z"/>
          <path fill="none" stroke="rgb(145,145,145)" d="M 2848,2863 L 4666,3944 3943,4667 2848,2863 Z"/>
         </g>
        </g>
        <g class="com.sun.star.drawing.CustomShape">
         <g id="id11">
          <rect class="BoundingBox" stroke="none" fill="none" x="3204" y="3208" width="1805" height="1807"/>
          <path fill="rgb(145,145,145)" stroke="none" d="M 5007,5013 L 3205,3935 3931,3209 5007,5013 Z"/>
          <path fill="none" stroke="rgb(145,145,145)" d="M 5007,5013 L 3205,3935 3931,3209 5007,5013 Z"/>
         </g>
        </g>
        <g class="com.sun.star.drawing.CustomShape">
         <g id="id12">
          <rect class="BoundingBox" stroke="none" fill="none" x="3185" y="2862" width="1821" height="1792"/>
          <path fill="rgb(145,145,145)" stroke="none" d="M 5004,2863 L 3186,3931 3906,4652 5004,2863 Z"/>
          <path fill="none" stroke="rgb(145,145,145)" d="M 5004,2863 L 3186,3931 3906,4652 5004,2863 Z"/>
         </g>
        </g>
        <g class="com.sun.star.drawing.CustomShape">
         <g id="id13">
          <rect class="BoundingBox" stroke="none" fill="none" x="3421" y="3929" width="1016" height="2041"/>
          <path fill="rgb(145,145,145)" stroke="none" d="M 3929,5968 L 3422,3930 4435,3930 3929,5968 Z"/>
          <path fill="none" stroke="rgb(145,145,145)" d="M 3929,5968 L 3422,3930 4435,3930 3929,5968 Z"/>
         </g>
        </g>
        <g class="com.sun.star.drawing.CustomShape">
         <g id="id14">
          <rect class="BoundingBox" stroke="none" fill="none" x="3421" y="1899" width="1016" height="2035"/>
          <path fill="rgb(145,145,145)" stroke="none" d="M 3929,1900 L 3422,3932 4435,3932 3929,1900 Z"/>
          <path fill="none" stroke="rgb(145,145,145)" d="M 3929,1900 L 3422,3932 4435,3932 3929,1900 Z"/>
         </g>
        </g>
        <g class="com.sun.star.drawing.CustomShape">
         <g id="id15">
          <rect class="BoundingBox" stroke="none" fill="none" x="3929" y="3432" width="2036" height="1013"/>
          <path fill="rgb(145,145,145)" stroke="none" d="M 5963,3938 L 3930,3433 3930,4443 5963,3938 Z"/>
          <path fill="none" stroke="rgb(145,145,145)" d="M 5963,3938 L 3930,3433 3930,4443 5963,3938 Z"/>
         </g>
        </g>
        <g class="com.sun.star.drawing.CustomShape">
         <g id="id16">
          <rect class="BoundingBox" stroke="none" fill="none" x="1892" y="3429" width="2041" height="1016"/>
          <path fill="rgb(145,145,145)" stroke="none" d="M 1893,3937 L 3931,3430 3931,4443 1893,3937 Z"/>
          <path fill="none" stroke="rgb(145,145,145)" d="M 1893,3937 L 3931,3430 3931,4443 1893,3937 Z"/>
         </g>
        </g>
        <g class="com.sun.star.drawing.CustomShape">
         <g id="id17">
          <rect class="BoundingBox" stroke="none" fill="none" x="2847" y="3217" width="1810" height="1795"/>
          <path fill="rgb(145,145,145)" stroke="none" d="M 2848,5010 L 4655,3941 3933,3218 2848,5010 Z"/>
          <path fill="none" stroke="rgb(145,145,145)" d="M 2848,5010 L 4655,3941 3933,3218 2848,5010 Z"/>
         </g>
        </g>
        <g class="com.sun.star.drawing.CustomShape">
         <g id="id18">
          <rect class="BoundingBox" stroke="none" fill="none" x="86" y="86" width="7704" height="7698"/>
          <path fill="none" stroke="rgb(38,53,115)" stroke-width="81" stroke-linejoin="round" d="M 7748,3935 C 7748,4603 7572,5259 7237,5838 6903,6417 6422,6898 5843,7232 5263,7566 4606,7742 3938,7742 3269,7742 2612,7566 2032,7232 1453,6898 972,6417 638,5838 303,5259 127,4603 127,3935 127,3266 303,2610 638,2031 972,1452 1453,971 2032,637 2612,303 3269,127 3937,127 4606,127 5263,303 5843,637 6422,971 6903,1452 7237,2031 7572,2610 7748,3266 7748,3934 L 7748,3935 Z"/>
         </g>
        </g>
        <g class="Group">
         <g class="com.sun.star.drawing.CustomShape">
          <g id="id19">
           <rect class="BoundingBox" stroke="none" fill="none" x="3794" y="2689" width="2780" height="1518"/>
           <path fill="rgb(114,159,207)" stroke="none" d="M 6572,2690 L 4050,4205 3795,3671 6572,2690 Z"/>
           <path fill="none" stroke="rgb(114,159,207)" d="M 6572,2690 L 4050,4205 3795,3671 6572,2690 Z"/>
          </g>
         </g>
         <g class="com.sun.star.drawing.CustomShape">
          <g id="id20">
           <rect class="BoundingBox" stroke="none" fill="none" x="1282" y="3668" width="2775" height="1526"/>
           <path fill="rgb(193,49,49)" stroke="none" d="M 1283,5192 L 3801,3669 4055,4201 1283,5192 Z"/>
           <path fill="none" stroke="rgb(193,49,49)" d="M 1283,5192 L 3801,3669 4055,4201 1283,5192 Z"/>
          </g>
         </g>
        </g>
        <g class="com.sun.star.drawing.CustomShape">
         <g id="id21">
          <rect class="BoundingBox" stroke="none" fill="none" x="3640" y="7009" width="586" height="592"/>
          <path fill="rgb(38,53,115)" stroke="none" d="M 3932,7010 L 4224,7599 3641,7599 3932,7010 Z"/>
          <path fill="none" stroke="rgb(38,53,115)" d="M 3932,7010 L 4224,7599 3641,7599 3932,7010 Z"/>
         </g>
        </g>
        <g class="com.sun.star.drawing.CustomShape">
         <g id="id22">
          <rect class="BoundingBox" stroke="none" fill="none" x="5176" y="6957" width="269" height="409"/>
          <path fill="rgb(38,53,115)" stroke="none" d="M 5177,6958 L 5443,7255 5180,7364 5177,6958 Z"/>
          <path fill="none" stroke="rgb(38,53,115)" d="M 5177,6958 L 5443,7255 5180,7364 5177,6958 Z"/>
         </g>
        </g>
        <g class="com.sun.star.drawing.CustomShape">
         <g id="id23">
          <rect class="BoundingBox" stroke="none" fill="none" x="492" y="5192" width="404" height="276"/>
          <path fill="rgb(38,53,115)" stroke="none" d="M 894,5193 L 493,5207 601,5466 894,5193 Z"/>
          <path fill="none" stroke="rgb(38,53,115)" d="M 894,5193 L 493,5207 601,5466 894,5193 Z"/>
         </g>
        </g>
        <g class="com.sun.star.drawing.CustomShape">
         <g id="id24">
          <rect class="BoundingBox" stroke="none" fill="none" x="1235" y="6255" width="373" height="367"/>
          <path fill="rgb(38,53,115)" stroke="none" d="M 1606,6256 L 1236,6415 1440,6620 1606,6256 Z"/>
          <path fill="none" stroke="rgb(38,53,115)" d="M 1606,6256 L 1236,6415 1440,6620 1606,6256 Z"/>
         </g>
        </g>
        <g class="com.sun.star.drawing.CustomShape">
         <g id="id25">
          <rect class="BoundingBox" stroke="none" fill="none" x="2399" y="6954" width="278" height="411"/>
          <path fill="rgb(38,53,115)" stroke="none" d="M 2675,6955 L 2400,7255 2662,7363 2675,6955 Z"/>
          <path fill="none" stroke="rgb(38,53,115)" d="M 2675,6955 L 2400,7255 2662,7363 2675,6955 Z"/>
         </g>
        </g>
        <g class="com.sun.star.drawing.CustomShape">
         <g id="id26">
          <rect class="BoundingBox" stroke="none" fill="none" x="483" y="2398" width="409" height="282"/>
          <path fill="rgb(38,53,115)" stroke="none" d="M 890,2678 L 484,2661 592,2399 890,2678 Z"/>
          <path fill="none" stroke="rgb(38,53,115)" d="M 890,2678 L 484,2661 592,2399 890,2678 Z"/>
         </g>
        </g>
        <g class="com.sun.star.drawing.CustomShape">
         <g id="id27">
          <rect class="BoundingBox" stroke="none" fill="none" x="1223" y="1243" width="375" height="365"/>
          <path fill="rgb(38,53,115)" stroke="none" d="M 1596,1606 L 1224,1447 1427,1244 1596,1606 Z"/>
          <path fill="none" stroke="rgb(38,53,115)" d="M 1596,1606 L 1224,1447 1427,1244 1596,1606 Z"/>
         </g>
        </g>
        <g class="com.sun.star.drawing.CustomShape">
         <g id="id28">
          <rect class="BoundingBox" stroke="none" fill="none" x="2399" y="515" width="281" height="411"/>
          <path fill="rgb(38,53,115)" stroke="none" d="M 2678,924 L 2400,624 2662,516 2678,924 Z"/>
          <path fill="none" stroke="rgb(38,53,115)" d="M 2678,924 L 2400,624 2662,516 2678,924 Z"/>
         </g>
        </g>
        <g class="com.sun.star.drawing.CustomShape">
         <g id="id29">
          <rect class="BoundingBox" stroke="none" fill="none" x="6964" y="2407" width="403" height="276"/>
          <path fill="rgb(38,53,115)" stroke="none" d="M 6965,2681 L 7365,2674 7254,2408 6965,2681 Z"/>
          <path fill="none" stroke="rgb(38,53,115)" d="M 6965,2681 L 7365,2674 7254,2408 6965,2681 Z"/>
         </g>
        </g>
        <g class="com.sun.star.drawing.CustomShape">
         <g id="id30">
          <rect class="BoundingBox" stroke="none" fill="none" x="6261" y="1234" width="370" height="371"/>
          <path fill="rgb(38,53,115)" stroke="none" d="M 6262,1603 L 6629,1439 6426,1235 6262,1603 Z"/>
          <path fill="none" stroke="rgb(38,53,115)" d="M 6262,1603 L 6629,1439 6426,1235 6262,1603 Z"/>
         </g>
        </g>
        <g class="com.sun.star.drawing.CustomShape">
         <g id="id31">
          <rect class="BoundingBox" stroke="none" fill="none" x="5180" y="502" width="283" height="412"/>
          <path fill="rgb(38,53,115)" stroke="none" d="M 5181,912 L 5461,613 5194,503 5181,912 Z"/>
          <path fill="none" stroke="rgb(38,53,115)" d="M 5181,912 L 5461,613 5194,503 5181,912 Z"/>
         </g>
        </g>
        <g class="com.sun.star.drawing.CustomShape">
         <g id="id32">
          <rect class="BoundingBox" stroke="none" fill="none" x="4134" y="413" width="354" height="357"/>
          <path fill="rgb(38,53,115)" stroke="none" d="M 4311,414 L 4135,768 4486,768 4311,414 Z"/>
          <path fill="none" stroke="rgb(38,53,115)" d="M 4311,414 L 4135,768 4486,768 4311,414 Z"/>
         </g>
        </g>
        <g class="com.sun.star.drawing.CustomShape">
         <g id="id33">
          <rect class="BoundingBox" stroke="none" fill="none" x="3376" y="413" width="354" height="357"/>
          <path fill="rgb(38,53,115)" stroke="none" d="M 3553,414 L 3377,768 3728,768 3553,414 Z"/>
          <path fill="none" stroke="rgb(38,53,115)" d="M 3553,414 L 3377,768 3728,768 3553,414 Z"/>
         </g>
        </g>
       </g>
      </g>
     </g>
    </g>
   </g>
  </g>
 </g>
</svg>